<?xml version="1.0" encoding="UTF-8"?>
<svg version="1.1" xmlns="http://www.w3.org/2000/svg" width="512" height="512">
<path d="M0 0 C6.6 0 13.2 0 20 0 C20.33 47.19 20.66 94.38 21 143 C23.64 139.7 26.28 136.4 29 133 C50.9639689 106.92225842 81.00257744 91.06550349 115 88 C150.10125148 85.71208544 182.58812288 96.84862468 209.27929688 119.73071289 C233.52718872 141.08621932 248.31873926 171.8715597 251 204 C253.03620229 240.94365464 240.49570986 273.5428685 216 301 C215.40445313 301.66902344 214.80890625 302.33804687 214.1953125 303.02734375 C193.38964713 325.023383 161.27772255 338.2338139 131.37890625 339.22265625 C119.28860933 339.47095466 107.74838652 338.95322647 96 336 C95.35192383 335.83902832 94.70384766 335.67805664 94.03613281 335.51220703 C61.92070777 327.20814407 34.4765922 306.42429655 17.24072266 278.13183594 C3.45984577 254.45324149 -0.32337842 230.78850205 -0.22705078 203.77807617 C-0.2264858 201.54958603 -0.22680492 199.32109552 -0.22793579 197.09260559 C-0.22850692 191.07700528 -0.21679163 185.06148559 -0.20278788 179.04590392 C-0.19024032 172.74653395 -0.18910685 166.44716191 -0.18673706 160.14778137 C-0.18123775 149.58573039 -0.16876632 139.02370566 -0.15087891 128.46166992 C-0.13248463 117.58895005 -0.11834555 106.71623818 -0.10986328 95.84350586 C-0.10933783 95.17186026 -0.10881239 94.50021467 -0.10827102 93.80821618 C-0.1056607 90.43833437 -0.10313334 87.06845251 -0.10064721 83.69857061 C-0.07977202 55.79902594 -0.04421373 27.89951661 0 0 Z " fill="#F5ED30" transform="translate(136,80)"/>
<path d="M0 0 C6.6 0 13.2 0 20 0 C20.33 47.19 20.66 94.38 21 143 C23.64 139.7 26.28 136.4 29 133 C50.9639689 106.92225842 81.00257744 91.06550349 115 88 C150.10125148 85.71208544 182.58812288 96.84862468 209.27929688 119.73071289 C233.52718872 141.08621932 248.31873926 171.8715597 251 204 C253.03620229 240.94365464 240.49570986 273.5428685 216 301 C215.40445313 301.66902344 214.80890625 302.33804687 214.1953125 303.02734375 C193.38964713 325.023383 161.27772255 338.2338139 131.37890625 339.22265625 C119.28860933 339.47095466 107.74838652 338.95322647 96 336 C95.35192383 335.83902832 94.70384766 335.67805664 94.03613281 335.51220703 C61.92070777 327.20814407 34.4765922 306.42429655 17.24072266 278.13183594 C3.45984577 254.45324149 -0.32337842 230.78850205 -0.22705078 203.77807617 C-0.2264858 201.54958603 -0.22680492 199.32109552 -0.22793579 197.09260559 C-0.22850692 191.07700528 -0.21679163 185.06148559 -0.20278788 179.04590392 C-0.19024032 172.74653395 -0.18910685 166.44716191 -0.18673706 160.14778137 C-0.18123775 149.58573039 -0.16876632 139.02370566 -0.15087891 128.46166992 C-0.13248463 117.58895005 -0.11834555 106.71623818 -0.10986328 95.84350586 C-0.10933783 95.17186026 -0.10881239 94.50021467 -0.10827102 93.80821618 C-0.1056607 90.43833437 -0.10313334 87.06845251 -0.10064721 83.69857061 C-0.07977202 55.79902594 -0.04421373 27.89951661 0 0 Z M103 110 C101.82308594 110.24492187 100.64617187 110.48984375 99.43359375 110.7421875 C72.82549319 117.01270963 49.37323709 134.91588344 35 158 C20.48640147 182.67251101 15.60895121 212.01279352 22.4609375 239.99853516 C27.31377761 258.01646233 36.41526576 273.35203936 49 287 C49.58136719 287.66257812 50.16273438 288.32515625 50.76171875 289.0078125 C68.15788384 307.85000643 95.1628706 318.03806852 120.21875 319.2890625 C146.92789246 320.19986215 172.55268967 312.64797618 193 295 C193.928125 294.23171875 194.85625 293.4634375 195.8125 292.671875 C211.67901898 279.00903921 223.00379492 260.33543121 228 240 C228.31517578 238.90171875 228.31517578 238.90171875 228.63671875 237.78125 C236.08763358 211.14819273 229.49372119 182.56813261 216.40234375 158.99609375 C213.19015318 153.47248563 209.26042471 148.75733849 205 144 C204.50113281 143.3709375 204.00226563 142.741875 203.48828125 142.09375 C188.65742341 123.39582034 162.25458245 111.06630086 138.80078125 108.27734375 C126.76595533 107.39916015 114.83814395 107.4538479 103 110 Z " fill="#211F33" transform="translate(136,80)"/>
<path d="M0 0 C14.53408548 -0.44657166 29.06724841 -0.78018472 43.60683155 -0.98443127 C50.36043735 -1.08185334 57.10975002 -1.21427006 63.8605957 -1.43334961 C70.39037946 -1.64155284 76.91573433 -1.75374469 83.4485836 -1.80266762 C85.92602942 -1.8374724 88.40326299 -1.90544604 90.87879372 -2.00887108 C103.4873117 -2.51413904 112.85322692 -2.28370805 122.48733807 6.58121014 C135.28930533 19.69640407 135.28930533 19.69640407 135.64111328 29.30908203 C135.5532959 30.36208496 135.46547852 31.41508789 135.375 32.5 C135.31940918 33.63421387 135.26381836 34.76842773 135.20654297 35.93701172 C134.25464156 44.64414599 130.99098856 50.71400213 125.125 57.125 C124.43970215 57.91841797 123.7544043 58.71183594 123.04833984 59.52929688 C112.87053961 68.89819536 102.52818748 65.44122356 88 66 C107.8 85.8 127.6 105.6 148 126 C130.12680904 139.40489322 103.89137844 139.73371649 82.6875 137.375 C54.8125936 132.53887166 29.97241735 116.72562223 13.67016602 93.64306641 C-3.17561565 68.83400402 -8.1428795 40.56180996 -3.73046875 11.0703125 C-3.12320988 8.51787681 -2.38654449 6.24900468 -1.4543457 3.80810547 C-1.18249954 3.09331024 -0.91065338 2.37851501 -0.63056946 1.64205933 C-0.42248154 1.10017975 -0.21439362 0.55830017 0 0 Z " fill="#A984C6" transform="translate(161,261)"/>
<path d="M0 0 C12.81106599 24.93887512 14.45419272 53.51124573 6.31640625 80.296875 C-2.79691121 105.93315082 -19.45320618 126.78600508 -43.09765625 140.35546875 C-45.64043601 141.21698551 -46.48104211 140.991552 -49 140 C-51.06455843 138.21428825 -52.96207705 136.4270907 -54.87011719 134.48632812 C-55.44616196 133.91232773 -56.02220673 133.33832733 -56.6157074 132.74693298 C-58.51676693 130.84888033 -60.40687068 128.94030623 -62.296875 127.03125 C-63.61336954 125.71169827 -64.93045527 124.39273612 -66.24810791 123.07434082 C-69.00642794 120.31141867 -71.75976328 117.54365777 -74.50927734 114.77197266 C-78.04241181 111.21050054 -81.58421802 107.65781489 -85.12931442 104.10825348 C-87.8474603 101.38596171 -90.56276262 98.66084979 -93.27701569 95.93467712 C-94.58276341 94.62321384 -95.88899285 93.31222999 -97.1957016 92.00172424 C-99.01560619 90.1749841 -100.83207303 88.34489927 -102.64746094 86.51367188 C-103.19287033 85.96714462 -103.73827972 85.42061737 -104.30021667 84.85752869 C-108 81.11468798 -108 81.11468798 -108 80 C-107.28602838 80.06071717 -106.57205675 80.12143435 -105.83644962 80.18399143 C-94.03527692 80.9910463 -82.64900221 81.65181308 -73.08042812 73.84152889 C-68.90148424 69.94312288 -65.01352629 65.83133955 -61.15234375 61.62109375 C-59.4304881 59.8455212 -57.70253927 58.07583944 -55.96888733 56.31178284 C-51.46609908 51.69946937 -47.04618847 47.01552383 -42.64123535 42.30993652 C-38.12002027 37.50661754 -33.52820213 32.77189636 -28.93945312 28.03320312 C-23.79516686 22.71759424 -18.65851324 17.39663964 -13.57884216 12.01914978 C-12.81195572 11.20966385 -12.04506927 10.40017792 -11.25494385 9.56616211 C-9.81966156 8.04905558 -8.3885696 6.52797015 -6.96235657 5.00233459 C-6.33390839 4.33906158 -5.70546021 3.67578857 -5.05796814 2.99241638 C-4.23947592 2.12050486 -4.23947592 2.12050486 -3.40444851 1.23097897 C-2 0 -2 0 0 0 Z " fill="#C0E032" transform="translate(356,246)"/>
<path d="M0 0 C14.53408548 -0.44657166 29.06724841 -0.78018472 43.60683155 -0.98443127 C50.36043735 -1.08185334 57.10975002 -1.21427006 63.8605957 -1.43334961 C70.39037946 -1.64155284 76.91573433 -1.75374469 83.4485836 -1.80266762 C85.92602942 -1.8374724 88.40326299 -1.90544604 90.87879372 -2.00887108 C103.4873117 -2.51413904 112.85322692 -2.28370805 122.48733807 6.58121014 C135.28831437 19.69538886 135.28831437 19.69538886 135.64160156 29.30932617 C135.55362305 30.36224854 135.46564453 31.4151709 135.375 32.5 C135.31795898 33.63348877 135.26091797 34.76697754 135.20214844 35.93481445 C134.11202084 45.81217903 129.93528971 52.81410827 122.73413086 59.53588867 C113.68149432 66.58080854 103.99480965 68.080955 92.7578125 66.76171875 C79.98467487 64.11968282 75.37849407 57.72088881 68 47 C67.505 34.13 67.505 34.13 67 21 C47.2 40.8 27.4 60.6 7 81 C-6.61707074 62.84390568 -6.90866351 35.64064029 -4.1875 14.125 C-3.64248871 10.48227496 -2.76331649 7.23555658 -1.4543457 3.80810547 C-1.18249954 3.09331024 -0.91065338 2.37851501 -0.63056946 1.64205933 C-0.42248154 1.10017975 -0.21439362 0.55830017 0 0 Z " fill="#D87CAA" transform="translate(161,261)"/>
<path d="M0 0 C3.19732035 2.08076589 5.76856875 4.73044266 8.43963623 7.42762756 C9.36222481 8.34736862 9.36222481 8.34736862 10.30345154 9.28569031 C12.33195323 11.31049177 14.35317311 13.3423953 16.37420654 15.37464905 C17.78060048 16.782235 19.18736417 18.1894516 20.59448242 19.59631348 C23.53962864 22.5430231 26.48138563 25.49306107 29.42059326 28.44569397 C33.19757872 32.23970803 36.98115287 36.02706674 40.76704025 39.81219578 C43.67026782 42.71569452 46.57088763 45.62178631 49.4706192 48.52877617 C50.86554816 49.92689748 52.26109261 51.32440497 53.65724945 52.72130013 C55.60157107 54.66777711 57.54257136 56.61750301 59.48260498 58.56825256 C60.06541733 59.15061172 60.64822968 59.73297089 61.248703 60.33297729 C65.20233154 64.31876644 65.20233154 64.31876644 65.20233154 65.4332428 C22.96233154 65.4332428 -19.27766846 65.4332428 -62.79766846 65.4332428 C-58.31523988 51.98595706 -52.78031814 41.36797933 -43.79766846 30.4332428 C-42.76706299 29.15513733 -42.76706299 29.15513733 -41.71563721 27.85121155 C-32.6331917 17.15111341 -21.17895893 8.92744122 -8.79766846 2.4332428 C-8.08481689 2.05039124 -7.37196533 1.66753967 -6.63751221 1.27308655 C-2.46022867 -0.77564487 -2.46022867 -0.77564487 0 0 Z " fill="#E7695D" transform="translate(223.79766845703125,195.56675720214844)"/>
<path d="M0 0 C37.62 0 75.24 0 114 0 C111.91878997 6.2436301 109.87753196 11.71968024 106.8125 17.4375 C106.21985352 18.54653687 106.21985352 18.54653687 105.61523438 19.67797852 C102.32917621 25.67634908 98.55773119 30.89357107 94 36 C93.32582031 36.81597656 92.65164063 37.63195312 91.95703125 38.47265625 C84.65150658 47.08226364 73.90085984 57.3066902 63 61 C58.5703024 60.70895629 56.06298741 57.46973478 53.12988281 54.48632812 C52.55383804 53.91232773 51.97779327 53.33832733 51.3842926 52.74693298 C49.48323307 50.84888033 47.59312932 48.94030623 45.703125 47.03125 C44.38663046 45.71169827 43.06954473 44.39273612 41.75189209 43.07434082 C38.99357206 40.31141867 36.24023672 37.54365777 33.49072266 34.77197266 C29.95758819 31.21050054 26.41578198 27.65781489 22.87068558 24.10825348 C20.1525397 21.38596171 17.43723738 18.66084979 14.72298431 15.93467712 C13.41723659 14.62321384 12.11100715 13.31222999 10.8042984 12.00172424 C8.98439381 10.1749841 7.16792697 8.34489927 5.35253906 6.51367188 C4.53442497 5.693881 4.53442497 5.693881 3.69978333 4.85752869 C0 1.11468798 0 1.11468798 0 0 Z " fill="#7CCE7E" transform="translate(248,326)"/>
<path d="M0 0 C7.875 6.75 7.875 6.75 10.61314392 9.4928894 C11.23699982 10.11537064 11.86085571 10.73785187 12.50361633 11.37919617 C13.16105331 12.04022842 13.8184903 12.70126068 14.49584961 13.38232422 C15.20888245 14.09521103 15.92191528 14.80809784 16.65655518 15.54258728 C18.99086557 17.87758914 21.3216231 20.21610295 23.65234375 22.5546875 C25.27879819 24.18300884 26.90547491 25.81110818 28.53236389 27.43899536 C32.79735497 31.70779016 37.05933336 35.9795804 41.32067871 40.25201416 C45.67615322 44.61774903 50.03448773 48.98062671 54.39257812 53.34375 C62.93117747 61.89304882 71.46659493 70.44551677 80 79 C62.31314184 92.6893368 35.14460775 92.83123698 14.0625 90.1875 C8.84516505 89.39985072 5.18607574 87.9447784 0 86 C0 57.62 0 29.24 0 0 Z " fill="#81A2D7" transform="translate(229,308)"/>
<path d="M0 0 C8.50841135 4.20736665 14.79263335 10.49158865 19 19 C22.37108639 29.05573726 22.19730237 39.46461384 17.50292969 49.06005859 C12.41793523 57.1178819 5.81053343 63.14623959 -3.35791016 66.07128906 C-13.96741818 68.24373325 -24.41048146 67.62794861 -33.79296875 61.90234375 C-41.33713944 56.17356942 -45.82618947 49.5440031 -47.75390625 40.23828125 C-49.08441991 29.00249015 -47.5802789 19.31782511 -40.53588867 10.26586914 C-29.5659937 -1.48636786 -15.35216423 -5.14666111 0 0 Z " fill="#F1F2F4" transform="translate(275,261)"/>
<path d="M0 0 C14.47761266 -0.37524299 26.9657066 0.85743659 40.96630859 5.05761719 C40.63630859 33.76761719 40.30630859 62.47761719 39.96630859 92.05761719 C35.30033516 88.05821138 30.84164724 84.09042388 26.52880859 79.74511719 C25.98804688 79.20822266 25.44728516 78.67132813 24.89013672 78.11816406 C20.96630859 74.18441475 20.96630859 74.18441475 20.96630859 73.05761719 C27.40130859 72.56261719 27.40130859 72.56261719 33.96630859 72.05761719 C33.16451172 71.26026154 32.36271484 70.46290588 31.53662109 69.64138794 C23.99675163 62.14198718 16.46211192 54.63736763 8.93261719 47.12755013 C5.06106716 43.26645627 1.18767084 39.40725251 -2.68994141 35.55224609 C-6.42899641 31.83485418 -10.16320515 28.11265824 -13.89404297 24.38702011 C-15.32131897 22.96345164 -16.7503597 21.54165031 -18.18115234 20.12161636 C-20.17830674 18.13888998 -22.16920554 16.15008464 -24.15869141 14.15966797 C-24.75713867 13.56841125 -25.35558594 12.97715454 -25.97216797 12.36798096 C-30.03369141 8.28572151 -30.03369141 8.28572151 -30.03369141 6.05761719 C-19.98515034 3.09121781 -10.517585 0.2979772 0 0 Z " fill="#FBB032" transform="translate(254.03369140625,187.9423828125)"/>
<path d="M0 0 C0.8593364 -0.00102219 1.71867279 -0.00204437 2.60404968 -0.00309753 C5.42425401 0.00175175 8.2411576 0.05606226 11.06079102 0.11108398 C13.02375012 0.12414975 14.98673214 0.1341093 16.94972229 0.14109802 C22.10089831 0.16774658 27.25067908 0.23644146 32.40130615 0.31402588 C37.66326017 0.38580426 42.92544102 0.41764068 48.18774414 0.45288086 C58.50150613 0.52781542 68.8142354 0.64719068 79.12719727 0.79467773 C78.64988888 2.25362034 78.17028684 3.7118127 77.68969727 5.16967773 C77.42286133 5.98178711 77.15602539 6.79389648 76.88110352 7.63061523 C76.12719727 9.79467773 76.12719727 9.79467773 75.12719727 11.79467773 C44.43719727 11.79467773 13.74719727 11.79467773 -17.87280273 11.79467773 C-13.72948404 3.50804035 -9.32310565 -0.29413881 0 0 Z " fill="#73CA58" transform="translate(282.872802734375,325.205322265625)"/>
<path d="M0 0 C0.96105077 5.65555122 1.81196155 11.67502647 -1.03317261 16.89588547 C-4.5782212 21.71069198 -9.00373756 25.72537565 -13.34375 29.80859375 C-14.71464661 31.15146873 -16.08223607 32.49772742 -17.44665527 33.84718323 C-21.02465735 37.368259 -24.64535834 40.84193782 -28.27728271 44.30725098 C-31.98418249 47.85993835 -35.64831201 51.45616493 -39.31640625 55.04882812 C-46.50335297 62.07551984 -53.73622145 69.05282241 -61 76 C-63.99680299 72.11802033 -65.38246025 68.62154213 -67 64 C-66.30187195 63.62751633 -65.6037439 63.25503265 -64.88446045 62.8712616 C-61.45014464 60.64328746 -58.7039989 57.96059704 -55.84863281 55.05981445 C-55.25454117 54.46440857 -54.66044952 53.86900269 -54.0483551 53.2555542 C-52.09529649 51.29602939 -50.1493113 49.3296296 -48.203125 47.36328125 C-46.84554183 45.99942594 -45.48744107 44.63608567 -44.12884521 43.27323914 C-40.56085141 39.69196419 -36.99847607 36.10515677 -33.43768311 32.51672363 C-27.72515323 26.76100274 -22.00580247 21.01207811 -16.28328705 15.26628685 C-14.28162743 13.25436572 -12.28339147 11.23908894 -10.28546143 9.22346497 C-9.06835075 7.99953113 -7.85113261 6.77570416 -6.63378906 5.55200195 C-6.07484451 4.98632004 -5.51589996 4.42063812 -4.9400177 3.83781433 C-1.11363289 0 -1.11363289 0 0 0 Z " fill="#C967A2" transform="translate(229,266)"/>
<path d="M0 0 C3.15545512 2.1190907 5.73753734 4.75808353 8.40057373 7.44715881 C9.01563278 8.06031952 9.63069183 8.67348022 10.26438904 9.30522156 C12.29289073 11.33002302 14.31411061 13.36192655 16.33514404 15.3941803 C17.74153798 16.80176625 19.14830167 18.20898285 20.55541992 19.61584473 C23.50056614 22.56255435 26.44232313 25.51259232 29.38153076 28.46522522 C33.15851622 32.25923928 36.94209037 36.04659799 40.72797775 39.83172703 C43.63120532 42.73522577 46.53182513 45.64131756 49.4315567 48.54830742 C50.82648566 49.94642873 52.22203011 51.34393622 53.61818695 52.74083138 C55.56250857 54.68730836 57.50350886 56.63703426 59.44354248 58.58778381 C60.02635483 59.17014297 60.60916718 59.75250214 61.2096405 60.35250854 C65.16326904 64.33829769 65.16326904 64.33829769 65.16326904 65.45277405 C59.50771783 66.41382482 53.48824257 67.2647356 48.26738358 64.41960144 C43.45257707 60.87455285 39.43789339 56.44903649 35.35467529 52.10902405 C34.01180031 50.73812744 32.66554162 49.37053798 31.31608582 48.00611877 C27.79501004 44.4281167 24.32133123 40.80741571 20.85601807 37.17549133 C17.3033307 33.46859156 13.70710411 29.80446204 10.11444092 26.1363678 C3.0877492 18.94942108 -3.88955337 11.7165526 -10.83673096 4.45277405 C-8.0719618 1.68800489 -4.02915156 -1.20042421 0 0 Z " fill="#E95E37" transform="translate(223.83673095703125,195.54722595214844)"/>
<path d="M0 0 C0.72767003 1.23884319 1.43154815 2.49168341 2.125 3.75 C2.71667969 4.79414063 2.71667969 4.79414063 3.3203125 5.859375 C4 8 4 8 3.41712952 9.74395752 C1.3769334 12.99190984 -1.2844662 15.55362684 -3.99438477 18.23730469 C-4.91412582 19.15989326 -4.91412582 19.15989326 -5.85244751 20.10112 C-7.87724897 22.12962169 -9.90915251 24.15084157 -11.94140625 26.171875 C-13.3489922 27.57826894 -14.7562088 28.98503263 -16.16307068 30.39215088 C-19.1097803 33.3372971 -22.05981828 36.27905408 -25.01245117 39.21826172 C-28.80646523 42.99524718 -32.59382394 46.77882132 -36.37895298 50.56470871 C-39.28245172 53.46793628 -42.18854351 56.36855609 -45.09553337 59.26828766 C-46.49365468 60.66321662 -47.89116217 62.05876107 -49.28805733 63.45491791 C-51.23453431 65.39923952 -53.18426021 67.34023981 -55.13500977 69.28027344 C-55.71736893 69.86308578 -56.29972809 70.44589813 -56.8997345 71.04637146 C-60.88552365 75 -60.88552365 75 -62 75 C-62.9340261 69.36612524 -63.79231648 63.33361444 -60.98978424 58.12105179 C-57.53247514 53.37689954 -53.1988717 49.42615793 -48.9453125 45.41015625 C-47.60176589 44.08954978 -46.26138717 42.7657134 -44.92404175 41.43882751 C-41.41619726 37.97663314 -37.8648361 34.56266051 -34.30285645 31.15631104 C-31.39111666 28.35693787 -28.51168022 25.5255571 -25.63334846 22.69190311 C-19.69990634 16.85108657 -13.74605902 11.03060373 -7.73486328 5.26977539 C-7.18100952 4.73229675 -6.62715576 4.19481812 -6.05651855 3.64105225 C-2.2313931 0 -2.2313931 0 0 0 Z " fill="#C2E00C" transform="translate(356,246)"/>
<path d="M0 0 C0.33 0.66 0.66 1.32 1 2 C31.36 2 61.72 2 93 2 C84.46763729 11.95442316 84.46763729 11.95442316 80.29841614 12.36076355 C78.72605342 12.36947249 77.15354699 12.36145837 75.58129883 12.34057617 C74.72254654 12.34101425 73.86379425 12.34145233 72.97901917 12.34190369 C70.13812593 12.33981223 67.2978215 12.31646443 64.45703125 12.29296875 C62.48834048 12.28737406 60.51964553 12.28310337 58.5509491 12.28010559 C53.36736536 12.2686468 48.18403349 12.23917066 43.00054932 12.20599365 C37.71198941 12.17531508 32.42338885 12.16160499 27.13476562 12.14648438 C16.75639971 12.11430201 6.37822079 12.06309311 -4 12 C-2.66666667 8 -1.33333333 4 0 0 Z " fill="#E2524F" transform="translate(165,249)"/>
<path d="M0 0 C1.48011371 0.30798326 2.95907325 0.621518 4.4375 0.9375 C5.26121094 1.11152344 6.08492188 1.28554687 6.93359375 1.46484375 C9 2 9 2 10 3 C10.09523905 5.89143151 10.12553027 8.75892064 10.11352539 11.65063477 C10.11367142 12.55786285 10.11381744 13.46509094 10.1139679 14.39981079 C10.11326841 17.41369985 10.10547434 20.42752793 10.09765625 23.44140625 C10.0957922 25.52505967 10.09436824 27.60871354 10.09336853 29.69236755 C10.08954234 35.18823446 10.0797112 40.68407513 10.06866455 46.17993164 C10.0584526 51.78336227 10.05387137 57.38679713 10.04882812 62.99023438 C10.03808902 73.99350114 10.02101139 84.99674839 10 96 C8.8944811 95.06409496 7.79064547 94.12620142 6.6875 93.1875 C6.07261719 92.66542969 5.45773437 92.14335937 4.82421875 91.60546875 C4.22222656 91.07566406 3.62023437 90.54585938 3 90 C2.43638606 89.51481997 1.87277212 89.02963995 1.29207897 88.5297575 C-1.02849645 85.78231115 -0.38672299 82.10754339 -0.34057617 78.6730957 C-0.34101425 77.82409698 -0.34145233 76.97509827 -0.34190369 76.10037231 C-0.33981235 73.29194199 -0.31646514 70.48410739 -0.29296875 67.67578125 C-0.28737402 65.72951076 -0.28310334 63.78323606 -0.28010559 61.83695984 C-0.26864713 56.7125585 -0.23917129 51.58841195 -0.20599365 46.46411133 C-0.17531437 41.23587491 -0.16160483 36.00759735 -0.14648438 30.77929688 C-0.1143026 20.51941926 -0.0630941 10.25973081 0 0 Z " fill="#F7E00A" transform="translate(294,194)"/>
<path d="M0 0 C9.95390734 8.53192058 9.95390734 8.53192058 10.36076355 12.66362 C10.36947151 14.21803827 10.36146049 15.77260193 10.34057617 17.3269043 C10.34101425 18.17590302 10.34145233 19.02490173 10.34190369 19.89962769 C10.33981235 22.70805801 10.31646514 25.51589261 10.29296875 28.32421875 C10.28737402 30.27048924 10.28310334 32.21676394 10.28010559 34.16304016 C10.26864713 39.2874415 10.23917129 44.41158805 10.20599365 49.53588867 C10.17531437 54.76412509 10.16160483 59.99240265 10.14648438 65.22070312 C10.1143026 75.48058074 10.0630941 85.74026919 10 96 C8.37276701 95.54965877 6.74826336 95.08944646 5.125 94.625 C3.76761719 94.24214844 3.76761719 94.24214844 2.3828125 93.8515625 C0 93 0 93 -2 91 C-1.34 91 -0.68 91 0 91 C0 60.97 0 30.94 0 0 Z " fill="#9374C1" transform="translate(219,298)"/>
<path d="M0 0 C5.3670388 -0.98917475 10.92636474 -1.72739631 15.83837128 1.03317261 C20.6109568 4.61002032 24.6274335 9.02155525 28.7109375 13.34375 C30.05546713 14.714429 31.4031494 16.08202195 32.7538147 17.44665527 C36.28074663 21.02674949 39.76359306 24.64684939 43.23858643 28.27728271 C46.79979829 31.98235521 50.40155775 35.64754701 54 39.31640625 C61.0400093 46.50604287 68.0340405 53.73864485 75 61 C71.8745041 63.64465038 68.91211733 64.84414715 65 66 C56.52212992 57.54524852 48.04692399 49.08783661 39.57515717 40.62696934 C35.64175692 36.69879898 31.70742722 32.77156883 27.77099609 28.84643555 C23.9757674 25.06203199 20.18295074 21.27522678 16.39183044 17.48670769 C14.9413458 16.03807797 13.48997797 14.59033203 12.03773499 13.14346504 C10.01177908 11.1247146 7.98891984 9.10291099 5.96679688 7.08032227 C5.35899887 6.47611954 4.75120087 5.87191681 4.12498474 5.24940491 C0 1.11405216 0 1.11405216 0 0 Z " fill="#6A9BBF" transform="translate(234,326)"/>
</svg>
