<?xml version="1.0" encoding="UTF-8"?>
<svg version="1.1" xmlns="http://www.w3.org/2000/svg" width="600" height="600">
<path d="M0 0 C198 0 396 0 600 0 C600 198 600 396 600 600 C402 600 204 600 0 600 C0 402 0 204 0 0 Z " fill="#F45800" transform="translate(0,0)"/>
<path d="M0 0 C0.0234994 14.29210949 0.04099525 28.58421593 0.05181217 42.87634087 C0.05700658 49.51441084 0.0640409 56.15246424 0.07543945 62.79052734 C0.08639166 69.2096278 0.09230269 75.62871577 0.09487724 82.04782486 C0.09670945 84.48352378 0.10028671 86.9192221 0.10573006 89.35491562 C0.13487668 102.95114372 -0.08937726 116.43203632 -1 130 C-9.25 130 -17.5 130 -26 130 C-29.37181863 121.00848367 -29.37181863 121.00848367 -30.61328125 116.26953125 C-30.88857666 115.22966064 -31.16387207 114.18979004 -31.44750977 113.1184082 C-31.73295654 112.0274585 -32.01840332 110.93650879 -32.3125 109.8125 C-32.93128392 107.48931469 -33.55108982 105.16640135 -34.171875 102.84375 C-34.47931641 101.69132812 -34.78675781 100.53890625 -35.10351562 99.3515625 C-42.30251303 69.42569548 -42.30251303 69.42569548 -60 45 C-60.48726563 44.57074219 -60.97453125 44.14148438 -61.4765625 43.69921875 C-70.68226144 36.30411936 -82.25854667 36.56116183 -93.50561523 36.61181641 C-95.03767774 36.60774295 -96.5697373 36.60239675 -98.10179138 36.59588623 C-102.22945057 36.58230683 -106.35688274 36.58746996 -110.48454547 36.59702349 C-114.81482187 36.60465939 -119.14507983 36.59756451 -123.47535706 36.59286499 C-130.737106 36.58742292 -137.99876308 36.59456253 -145.26049805 36.60888672 C-153.65460861 36.62525337 -162.048501 36.6198895 -170.44260639 36.6034075 C-177.66238283 36.58979972 -184.88209359 36.5878682 -192.1018787 36.59572351 C-196.40886679 36.6003984 -200.71575221 36.60102906 -205.02273369 36.59111404 C-209.06531718 36.58245543 -213.10761832 36.58844578 -217.15017128 36.60579681 C-218.63366095 36.60976575 -220.11717436 36.60862064 -221.6006546 36.60200882 C-223.62397415 36.59382129 -225.64734561 36.60590527 -227.67063904 36.61904907 C-228.80306251 36.62018015 -229.93548597 36.62131123 -231.1022253 36.62247658 C-234.43657117 37.05687669 -235.80673108 37.43859284 -238 40 C-238.6112851 43.2033013 -238.6112851 43.2033013 -238.51898193 46.96647644 C-238.52648319 47.67957783 -238.53398444 48.39267921 -238.541713 49.12738973 C-238.56205423 51.52296392 -238.55387545 53.91759741 -238.54589844 56.31323242 C-238.55463001 58.02794841 -238.56511433 59.74265623 -238.57722473 61.45735168 C-238.60515653 66.11824687 -238.60848784 70.77887715 -238.60750484 75.43984389 C-238.6106278 80.30861498 -238.63623307 85.17726566 -238.65948486 90.04597473 C-238.70009586 99.26819108 -238.72039754 108.49033664 -238.73345876 117.71262866 C-238.74931156 128.21074835 -238.78771989 138.70874726 -238.82805204 149.206797 C-238.91052075 170.80449153 -238.96456927 192.40218047 -239 214 C-230.87810719 213.91410668 -222.7563961 213.81871596 -214.63474655 213.71247292 C-210.86004746 213.66336566 -207.08536567 213.6170611 -203.31054688 213.578125 C-187.98435995 213.41793164 -172.70076756 213.14443411 -157.40625 212.07421875 C-156.28240906 211.99656281 -155.15856812 211.91890686 -154.00067139 211.83889771 C-136.17000258 210.51661632 -136.17000258 210.51661632 -121 202 C-117.51384667 197.60878763 -116.49138857 192.21147482 -115.1875 186.86328125 C-114.83486877 185.42930581 -114.48165522 183.99547347 -114.12792969 182.56176758 C-113.94403687 181.81488678 -113.76014404 181.06800598 -113.57067871 180.29849243 C-112.61608829 176.45373914 -111.62872841 172.61750372 -110.640625 168.78125 C-110.34596344 167.63611687 -110.34596344 167.63611687 -110.04534912 166.46784973 C-109.44735766 164.14511485 -108.84869617 161.82255333 -108.25 159.5 C-107.83458428 157.88673192 -107.41921947 156.27345072 -107.00390625 154.66015625 C-106.00328033 150.77326275 -105.00162241 146.88663737 -104 143 C-94.76 143 -85.52 143 -76 143 C-76.37214156 150.21814205 -76.74466433 157.43624865 -77.12062836 164.65419006 C-77.29566736 168.01664436 -77.46986112 171.37913702 -77.64282227 174.74169922 C-77.8421394 178.61435207 -78.0438951 182.48687166 -78.24609375 186.359375 C-78.3065538 187.544245 -78.36701385 188.72911499 -78.42930603 189.94989014 C-78.76884153 196.40405735 -79.20480487 202.83607746 -79.79478455 209.27243042 C-80.1732724 214.30300651 -80.14590953 219.3328172 -80.125 224.375 C-80.12306641 225.55835938 -80.12113281 226.74171875 -80.11914062 227.9609375 C-80.06767604 239.12303347 -79.75540349 250.27533795 -79.42880249 261.43212891 C-78.99542248 276.29771852 -78.92003221 291.12599142 -79 306 C-87.91 306 -96.82 306 -106 306 C-106.5775 303.751875 -107.155 301.50375 -107.75 299.1875 C-107.94851563 298.41494873 -108.14703125 297.64239746 -108.3515625 296.84643555 C-109.31648398 293.0034017 -110.17928203 289.17086642 -110.875 285.26953125 C-112.35492257 277.07788268 -114.17429131 269.62426426 -117.875 262.125 C-118.19049805 261.47724609 -118.50599609 260.82949219 -118.83105469 260.16210938 C-122.64059488 252.95569734 -128.01172449 249.38603867 -135.64648438 246.91577148 C-147.59044073 243.65413926 -160.50150011 243.55977369 -172.80859375 243.04956055 C-175.41446723 242.94106128 -178.01967536 242.82205536 -180.625 242.70117188 C-200.07278299 241.83330185 -219.53911036 241.45375738 -239 241 C-238.96274585 260.3331696 -238.90275698 279.66614324 -238.81609726 298.999156 C-238.7763782 307.97689785 -238.74394961 316.95455295 -238.72900391 325.93237305 C-238.71595026 333.76231723 -238.68889149 341.59206997 -238.64538693 349.42190629 C-238.62285515 353.56336737 -238.60708431 357.70459304 -238.60811615 361.84612083 C-238.60886771 365.7540928 -238.59072086 369.66154605 -238.55883217 373.56938362 C-238.55039898 374.99423731 -238.54853783 376.41914963 -238.55419731 377.84401703 C-238.59263442 389.02052652 -237.5418128 401.12727905 -230 410 C-219.22864461 420.52085875 -204.90896735 421.30737359 -190.54052734 421.2746582 C-189.35824554 421.27976913 -188.17596375 421.28488007 -186.95785522 421.29014587 C-183.08382984 421.30394396 -179.20998441 421.303092 -175.3359375 421.30078125 C-173.30492883 421.30309722 -171.27392444 421.30660161 -169.24291766 421.310188 C-162.86358726 421.32123488 -156.48431577 421.32174908 -150.10498047 421.31567383 C-143.57484783 421.30964938 -137.04493149 421.32191714 -130.51483572 421.3432439 C-124.86508854 421.3610012 -119.2154093 421.36683894 -113.56563532 421.36360615 C-110.21054754 421.36181412 -106.85573512 421.36557955 -103.50065231 421.37832069 C-77.19950175 422.12339778 -77.19950175 422.12339778 -52.5 414.3125 C-51.84821777 413.96074707 -51.19643555 413.60899414 -50.52490234 413.24658203 C-32.17328959 403.05427369 -23.99462526 387.02912122 -15.75 368.5 C-14.98051305 366.80277435 -14.20968395 365.10615655 -13.4375 363.41015625 C-9.16489865 353.99427926 -5.02625857 344.52372533 -1 335 C-0.67 335 -0.34 335 0 335 C0 374.93 0 414.86 0 456 C-14.92668949 456 -29.46736041 455.91786132 -44.31907654 455.35364151 C-65.57412617 454.62354504 -86.85824117 454.85483725 -108.12264061 454.8656745 C-114.08183377 454.86798127 -120.04102555 454.86620234 -126.00021869 454.8647473 C-138.52113516 454.86191801 -151.04204423 454.86513905 -163.56295949 454.87054767 C-174.22996497 454.87501336 -184.89695956 454.8742367 -195.56396484 454.86962891 C-208.05012741 454.86423757 -220.53628354 454.86219245 -233.02244711 454.86524117 C-239.59578249 454.86680359 -246.16911187 454.86705473 -252.7424469 454.86370468 C-288.46382143 454.80265188 -288.46382143 454.80265188 -324.16751099 455.77638245 C-333.89858843 456.19065849 -343.63733503 456.10848149 -353.375 456.0625 C-355.30989462 456.05745273 -357.24479058 456.05289577 -359.1796875 456.04882812 C-363.78652221 456.03900126 -368.39315753 456.0193927 -373 456 C-373 447.75 -373 439.5 -373 431 C-370.586875 430.49210937 -368.17375 429.98421875 -365.6875 429.4609375 C-363.29037084 428.94743437 -360.89418684 428.42971813 -358.49804688 427.91162109 C-356.86226447 427.56022843 -355.22556778 427.21305901 -353.58789062 426.87060547 C-344.88856356 425.04844912 -336.39761433 423.02299191 -328.05078125 419.93359375 C-327.39299683 419.69228729 -326.7352124 419.45098083 -326.05749512 419.20236206 C-319.97631755 416.83905086 -316.91472576 414.02997427 -314.1558075 408.22320557 C-311.33565433 400.7761621 -311.41574758 393.14989735 -311.26953125 385.296875 C-311.22962741 383.65659689 -311.18890791 382.01633847 -311.14746094 380.37609863 C-311.0374273 375.80722515 -310.9489853 371.23815804 -310.86627579 366.66871643 C-310.812144 363.73067812 -310.75298762 360.79277675 -310.69271851 357.8548584 C-309.83216778 315.18437742 -309.81457922 272.50685147 -309.81275129 229.82944679 C-309.81250197 227.27022402 -309.81178178 224.7110018 -309.8109169 222.15177917 C-309.79821381 181.34812749 -310.00925639 140.56633496 -310.87890625 99.77061462 C-311.03372531 92.49024277 -311.16546709 85.20948211 -311.29646301 77.9286499 C-311.309663 77.19870221 -311.32286299 76.46875452 -311.33646297 75.7166872 C-311.36247936 74.262393 -311.38783175 72.80808679 -311.41256809 71.35377026 C-311.60206574 58.03811531 -311.60206574 58.03811531 -317.0625 46.1875 C-326.66367376 39.03768975 -337.26887621 37.07517813 -348.75 34.75 C-350.43645787 34.39707325 -352.12265854 34.04291513 -353.80859375 33.6875 C-360.19210347 32.35059559 -366.56457015 31.07257164 -373 30 C-373 21.75 -373 13.5 -373 5 C-369.25301254 5.00666183 -365.50602509 5.01332367 -361.64549255 5.02018738 C-327.11159751 5.08016039 -292.57770905 5.12480551 -258.04377314 5.15319599 C-253.49752509 5.15694713 -248.95127716 5.1608302 -244.4050293 5.16479492 C-243.50013128 5.16558185 -242.59523327 5.16636878 -241.6629141 5.16717956 C-227.10075823 5.18015631 -212.53863868 5.20376639 -197.9765042 5.23145839 C-182.9821836 5.25972981 -167.98788173 5.27622159 -152.99353558 5.28226548 C-144.59346427 5.28597638 -136.19346871 5.29481661 -127.79342461 5.31719017 C-77.82556465 5.47803042 -77.82556465 5.47803042 -28 2 C-25.77001537 1.77802775 -23.53987818 1.55758002 -21.30955505 1.33903503 C-18.81538536 1.09221271 -16.32290946 0.84197254 -13.83245945 0.56010914 C-9.1798343 0.04178781 -4.67221578 -0.02576311 0 0 Z " fill="#FEFEFD" transform="translate(464,73)"/>
</svg>
