<?xml version="1.0" encoding="UTF-8"?>
<svg version="1.1" xmlns="http://www.w3.org/2000/svg" width="2000" height="562">
<path d="M0 0 C148.11351295 0 148.11351295 0 166.5 6.375 C167.42014893 6.68171631 168.34029785 6.98843262 169.28833008 7.30444336 C188.5238437 13.80694796 207.8934884 22.95721551 222 38 C222 38.66 222 39.32 222 40 C222.66 40 223.32 40 224 40 C245.64294014 64.86013395 247.46535533 97.67333308 246 129 C243.89797866 154.06752647 229.87185615 176.88072981 211 193 C206.57986974 196.41085878 201.83843353 199.2313851 197 202 C196.43120117 202.33837891 195.86240234 202.67675781 195.27636719 203.02539062 C157.49693046 225.44018973 116.60388865 224 73 224 C73 265.58 73 307.16 73 350 C48.91 350 24.82 350 0 350 C0 234.5 0 119 0 0 Z M73 60 C73 94.32 73 128.64 73 164 C118.14819855 166.92306487 118.14819855 166.92306487 157.0625 148.6875 C167.80574463 136.93265042 171.41470994 122.57243651 171.27734375 107.01953125 C170.65843291 94.25026124 164.93522175 82.0881322 156 73 C131.02853394 55.47944578 103.27041452 60 73 60 Z " fill="#39B75D" transform="translate(457,105)"/>
<path d="M0 0 C5.8884332 13.39896309 11.6327289 26.85215842 17.26525879 40.36013794 C21.05884149 49.45119788 24.94487978 58.49403272 28.9375 67.5 C30.24904483 70.47672549 31.55897534 73.45415191 32.86767578 76.43212891 C33.56435951 78.01205978 34.26498783 79.59026672 34.97216797 81.16552734 C48.69500893 111.84692698 49.88042866 149.07438874 38.04345703 180.54296875 C25.21143113 213.22263093 1.24093932 240.47927161 -31 255 C-31.81984375 255.38671875 -32.6396875 255.7734375 -33.484375 256.171875 C-39.71981437 258.96232024 -46.04044096 260.98529946 -52.625 262.75 C-53.40012939 262.96068115 -54.17525879 263.1713623 -54.97387695 263.38842773 C-90.49583979 272.5320649 -126.66220601 263.76283777 -157.47363281 245.66625977 C-166.85650646 240.08024682 -175.99415434 234.17142187 -185 228 C-186.32935973 227.09495315 -187.65878861 226.19000785 -188.98828125 225.28515625 C-208.58041427 211.91480158 -227.92866613 198.09176818 -246.43310547 183.24511719 C-247.98420238 182.01255342 -249.55652623 180.80685755 -251.12890625 179.6015625 C-263.21589876 170.17016754 -263.21589876 170.17016754 -264.5 161.703125 C-264.94732236 153.01761579 -263.05119286 148.83456872 -258 142 C-257.0083246 140.59430698 -256.01742364 139.18806725 -255.02734375 137.78125 C-253.99974431 136.35247467 -252.9697172 134.92544281 -251.9375 133.5 C-251.37877197 132.72664307 -250.82004395 131.95328613 -250.24438477 131.15649414 C-245.86935001 125.13064152 -241.35860701 119.21863058 -236.80639648 113.32617188 C-232.54731868 107.78494954 -228.51396901 102.10826054 -224.51928711 96.37475586 C-220.46327462 90.58320923 -216.19619762 84.97729009 -211.86425781 79.39038086 C-208.00221928 74.38349897 -204.34931305 69.26048393 -200.75 64.0625 C-188.43758895 46.40628591 -188.43758895 46.40628591 -180 43 C-176.703125 42.49609375 -176.703125 42.49609375 -173.25 42.4375 C-172.12078125 42.39496094 -170.9915625 42.35242188 -169.828125 42.30859375 C-160.88400771 43.92401085 -153.44633286 50.71170471 -146.375 56.125 C-144.61330036 57.45966064 -142.85158138 58.79429575 -141.08984375 60.12890625 C-140.2272998 60.7852002 -139.36475586 61.44149414 -138.47607422 62.11767578 C-135.61007686 64.29642155 -132.73521549 66.46300803 -129.85546875 68.62353516 C-128.57932093 69.58097091 -127.30457306 70.54027554 -126.03125 71.50146484 C-122.38803901 74.24399311 -118.7110705 76.92955119 -114.99609375 79.57421875 C-114.14474854 80.18579834 -113.29340332 80.79737793 -112.41625977 81.42749023 C-110.77422774 82.60510279 -109.12538084 83.77329608 -107.46850586 84.92993164 C-101.55654475 89.18717425 -96.35581042 93.93256875 -94 101 C-93.16630898 107.03830495 -93.97909192 111.23493921 -97.5234375 116.21484375 C-102.6195578 122.37602623 -108.54515622 125.2242025 -116.36035156 126.33569336 C-118.8324519 126.51085555 -121.27171818 126.56888915 -123.75 126.5625 C-124.645979 126.5622583 -125.54195801 126.5620166 -126.46508789 126.56176758 C-137.70159738 126.28298241 -149.2742117 123.37864541 -159.3359375 118.32421875 C-163.25945711 116.37396487 -165.66394372 116.57350266 -170 117 C-172.16666667 117.83333333 -172.16666667 117.83333333 -173 120 C-173.78254718 125.44573773 -173.78254718 125.44573773 -171.39453125 130.06640625 C-157.53699334 141.25642463 -132.9804099 144.13094637 -116 143 C-102.7010068 141.1581547 -92.07191463 135.99897159 -83 126 C-81.30059642 123.3545367 -80.17385216 120.9346304 -79 118 C-77.24970238 118.31082872 -75.49977306 118.62373179 -73.75 118.9375 C-72.77546875 119.11152344 -71.8009375 119.28554688 -70.796875 119.46484375 C-69.22594844 119.76542607 -67.65781646 120.09374588 -66.11523438 120.51635742 C-51.22827773 123.92021951 -33.90159148 121.12691844 -20.9375 113.1875 C-12.20228651 106.63608988 -7.28361156 98.67108205 -5 88 C-3.85427848 78.68396928 -6.68672796 69.6251761 -12.3125 62.1875 C-17.78274161 55.55168633 -23.83318556 50.12196993 -30.9375 45.3125 C-32.4453975 44.27023307 -33.95187426 43.22590815 -35.45703125 42.1796875 C-36.2145166 41.65342773 -36.97200195 41.12716797 -37.75244141 40.58496094 C-41.26476225 38.10809944 -44.69753924 35.52996354 -48.125 32.9375 C-55.69563369 27.21635428 -63.33531275 21.59434069 -71 16 C-70.67 15.34 -70.34 14.68 -70 14 C-67.69702148 13.68457031 -67.69702148 13.68457031 -64.62109375 13.578125 C-63.48373779 13.5255957 -62.34638184 13.47306641 -61.17456055 13.41894531 C-59.94133057 13.36319336 -58.70810059 13.30744141 -57.4375 13.25 C-39.33001733 12.18914588 -22.34455185 8.42302285 -5.73046875 1.1015625 C-3 0 -3 0 0 0 Z " fill="#39B75D" transform="translate(264,254)"/>
<path d="M0 0 C25.08 0 50.16 0 76 0 C80.49433107 8.98866213 80.49433107 8.98866213 81.60546875 12.3125 C81.99037476 13.4420813 81.99037476 13.4420813 82.38305664 14.59448242 C82.64852295 15.38830322 82.91398926 16.18212402 83.1875 17 C85.84789492 24.7814532 88.65201069 32.49614615 91.5625 40.1875 C94.11253385 46.93511826 96.63089093 53.6866255 99 60.5 C101.31193257 67.1448923 103.762927 73.73127286 106.25 80.3125 C110.92253939 92.68814553 115.37360096 105.13921805 119.79492188 117.60644531 C121.85485323 123.40730548 123.92772935 129.20353799 126 135 C130.08182212 125.7096489 133.35817535 116.25934262 136.5 106.625 C137.42462951 103.80387708 138.3520137 100.98367122 139.28125 98.1640625 C139.5074704 97.47708282 139.7336908 96.79010315 139.96676636 96.08230591 C142.19598129 89.34612394 144.58672736 82.6724307 147 76 C149.01541686 70.33880873 151.00602094 64.66877237 153 59 C153.26006836 58.26104492 153.52013672 57.52208984 153.78808594 56.76074219 C156.73041449 48.39473333 159.6533973 40.02259242 162.52734375 31.6328125 C162.97165982 30.33755829 163.41599583 29.04231092 163.86035156 27.74707031 C164.72585446 25.2239388 165.58794362 22.69972434 166.44824219 20.17480469 C166.85075195 19.00079102 167.25326172 17.82677734 167.66796875 16.6171875 C168.02141357 15.58190918 168.3748584 14.54663086 168.73901367 13.47998047 C170.3822462 8.94510411 172.20862924 4.4784269 174 0 C198.42 0 222.84 0 248 0 C247.29152509 4.25084945 246.65421108 7.33707374 245.1796875 11.23828125 C244.81270752 12.21466553 244.44572754 13.1910498 244.06762695 14.19702148 C243.67406006 15.22512939 243.28049316 16.2532373 242.875 17.3125 C242.47047607 18.38121338 242.06595215 19.44992676 241.64916992 20.55102539 C239.03504761 27.41573634 236.29658272 34.21771998 233.45019531 40.98876953 C231.49996587 45.6681929 229.76883854 50.39264287 228.125 55.1875 C225.48113889 62.89267283 222.430096 70.40045349 219.31469727 77.92553711 C216.88514667 83.80473316 214.56118185 89.70180675 212.35253906 95.66772461 C205.40281346 114.43519696 198.04030976 133.05050391 190.75 151.6875 C190.36227417 152.6790509 189.97454834 153.67060181 189.57507324 154.69219971 C185.95718784 163.94200961 182.33633357 173.18957202 178.625 182.40234375 C176.70205866 187.19357387 174.89837324 191.98339889 173.25 196.875 C170.54174766 204.7113363 167.49683772 212.39358154 164.37597656 220.07373047 C161.90394695 226.1779643 159.49287618 232.29812034 157.15951538 238.45654297 C155.78996546 242.07108661 154.40944975 245.68141614 153.02947998 249.29199219 C152.35482976 251.06663385 151.6854023 252.84327182 151.02178955 254.62207031 C144.13501337 273.06730783 135.43808354 288.55558494 122 303 C121.38640625 303.68320312 120.7728125 304.36640625 120.140625 305.0703125 C104.2373045 321.99711403 80.71107678 334.45732346 59 342 C58.15695312 342.31839844 57.31390625 342.63679688 56.4453125 342.96484375 C51.75175185 344.67949469 47.99605368 345.31889704 43 345 C42.76490723 344.40646729 42.52981445 343.81293457 42.28759766 343.20141602 C39.72088898 336.74950113 37.06263697 330.33980075 34.375 323.9375 C29.10699054 311.34849216 24.0319032 298.68492639 19 286 C19.53149658 285.76635742 20.06299316 285.53271484 20.6105957 285.29199219 C53.0051853 272.59128962 53.0051853 272.59128962 77 249 C77.46535156 248.16855469 77.93070313 247.33710938 78.41015625 246.48046875 C84.03956786 234.51600898 84.34634794 219.03952132 80.30004883 206.49853516 C79.27994316 203.73435608 78.16124064 201.02412388 76.98876953 198.32128906 C75.4525732 194.71483111 74.07128294 191.05022422 72.66430664 187.3918457 C69.42885047 179.00842529 66.07676893 170.67011486 62.7265625 162.33203125 C60.2871339 156.23345974 57.89860246 150.11470928 55.5 144 C51.22480691 133.10283976 46.94136046 122.20982551 42.51953125 111.37109375 C39.94896358 105.047431 37.52532494 98.70966857 35.3125 92.25 C31.45999158 81.06720678 26.83615327 70.18610415 22.33544922 59.25292969 C17.80580321 48.21947386 13.37121093 37.15135688 9.23071289 25.96557617 C7.88021039 22.32204745 6.49595252 18.69453315 5.07421875 15.078125 C4.58804077 13.8408667 4.58804077 13.8408667 4.09204102 12.57861328 C3.45870029 10.97167707 2.82257313 9.36583564 2.18334961 7.76123047 C0 2.21854889 0 2.21854889 0 0 Z " fill="#39B75D" transform="translate(1752,217)"/>
<path d="M0 0 C18.42282057 15.05711296 27.34914306 42.48098289 29.78125 65.34765625 C30.43379469 77.01378636 30.26366191 88.7118849 30.18682575 100.39137101 C30.16149595 104.90360427 30.15944561 109.41585297 30.15472412 113.92814636 C30.14238572 122.43800461 30.10969047 130.94765263 30.06932616 139.4574191 C30.01587413 150.98123321 29.994589 162.50510647 29.97131729 174.02901363 C29.93392032 192.13538472 29.85416961 210.24131259 29.78125 228.34765625 C6.02125 228.34765625 -17.73875 228.34765625 -42.21875 228.34765625 C-42.25742188 212.00685547 -42.25742188 212.00685547 -42.296875 195.3359375 C-42.32204997 188.42250821 -42.34822592 181.50910655 -42.37890625 174.59570312 C-42.42738688 163.62947805 -42.47185385 152.66334485 -42.48974609 141.69702148 C-42.50279812 133.70886611 -42.52985285 125.72089845 -42.57336307 117.73284882 C-42.59589842 113.5075518 -42.61166547 109.28248562 -42.61063385 105.05712318 C-42.60988251 101.07036093 -42.62802095 97.08410741 -42.65991783 93.09747696 C-42.66835368 91.64359678 -42.67021031 90.1896591 -42.66455269 88.73576546 C-42.62188695 76.07322779 -44.34153519 63.06752059 -53.21875 53.34765625 C-63.75866926 44.56754397 -75.05074023 44.15877013 -88.21875 45.34765625 C-100.33786086 47.31268756 -114.65040937 54.49564043 -124.3449707 61.99169922 C-126.21875 63.34765625 -126.21875 63.34765625 -128.21875 63.34765625 C-128.21875 118.12765625 -128.21875 172.90765625 -128.21875 229.34765625 C-151.97875 229.34765625 -175.73875 229.34765625 -200.21875 229.34765625 C-200.21875 150.80765625 -200.21875 72.26765625 -200.21875 -8.65234375 C-187.67875 -8.65234375 -175.13875 -8.65234375 -162.21875 -8.65234375 C-155.46875 -0.77734375 -155.46875 -0.77734375 -153.2265625 2.3125 C-152.51113281 3.29379883 -152.51113281 3.29379883 -151.78125 4.29492188 C-151.306875 4.95169922 -150.8325 5.60847656 -150.34375 6.28515625 C-149.84617187 6.96900391 -149.34859375 7.65285156 -148.8359375 8.35742188 C-147.6275745 10.018921 -146.42277778 11.68301286 -145.21875 13.34765625 C-141.04337998 11.04155164 -137.31065376 8.72427956 -133.59375 5.72265625 C-96.33855361 -21.73124192 -38.11536811 -28.38521252 0 0 Z " fill="#39B75D" transform="translate(1211.21875,225.65234375)"/>
<path d="M0 0 C-0.68297179 4.1210151 -1.96367805 7.78283088 -3.4765625 11.671875 C-3.72290436 12.30780075 -3.96924622 12.9437265 -4.22305298 13.59892273 C-5.0194824 15.65095246 -5.82200078 17.70053325 -6.625 19.75 C-7.17171221 21.15366384 -7.71826136 22.55739121 -8.26464844 23.96118164 C-12.0591385 33.68944131 -15.94006775 43.37910421 -20 53 C-24.98101974 52.15867613 -29.63645776 50.48331473 -34.38476562 48.81640625 C-45.5367221 44.98964352 -54.32372155 45.03847796 -65 50 C-70.8419261 53.67824977 -73.63422618 58.65698323 -76 65 C-78.72645997 76.04804251 -78.72645997 76.04804251 -79 96 C-64.15 96 -49.3 96 -34 96 C-32.865625 99.568125 -31.73125 103.13625 -30.5625 106.8125 C-27.16397585 117.47617107 -23.65783983 128.10077632 -20.05883789 138.69848633 C-19.70297607 139.75447021 -19.34711426 140.8104541 -18.98046875 141.8984375 C-18.51483521 143.27008057 -18.51483521 143.27008057 -18.03979492 144.66943359 C-16.56075205 149.40695482 -15.3058598 154.2118474 -14 159 C-35.78 159 -57.56 159 -80 159 C-80 216.75 -80 274.5 -80 334 C-104.09 334 -128.18 334 -153 334 C-153 276.25 -153 218.5 -153 159 C-164.88 159 -176.76 159 -189 159 C-189 138.21 -189 117.42 -189 96 C-177.12 96 -165.24 96 -153 96 C-153.0825 91.153125 -153.165 86.30625 -153.25 81.3125 C-153.41468709 54.05609403 -148.19216183 30.92360376 -128.76171875 10.7265625 C-95.96556241 -21.65210387 -37.69444361 -27.22376483 0 0 Z " fill="#39B75D" transform="translate(1766,121)"/>
<path d="M0 0 C23.76 0 47.52 0 72 0 C72 25.08 72 50.16 72 76 C85.86 76 99.72 76 114 76 C117.13414055 83.52193731 120.061856 90.78816291 122.515625 98.5078125 C122.81692322 99.44051971 123.11822144 100.37322693 123.4286499 101.334198 C124.37388836 104.26294961 125.31229603 107.19382837 126.25 110.125 C127.20323007 113.09145967 128.15790275 116.05744536 129.11419678 119.0229187 C129.70499709 120.85634381 130.29381485 122.69040922 130.88043213 124.525177 C131.27654694 125.75819046 131.27654694 125.75819046 131.68066406 127.01611328 C131.91207092 127.73936798 132.14347778 128.46262268 132.38189697 129.20779419 C132.98020281 131.06970459 132.98020281 131.06970459 134 133 C134 134.98 134 136.96 134 139 C113.54 139 93.08 139 72 139 C72.06194135 153.07929632 72.06194135 153.07929632 72.16015625 167.15820312 C72.20830581 172.90958851 72.25241964 178.66078664 72.27099609 184.41235352 C72.28626134 189.05509169 72.32087917 193.6973363 72.36830902 198.33985329 C72.38302187 200.10140478 72.39103514 201.86302678 72.39188385 203.62463951 C72.40407283 216.25126178 72.78135521 229.15526839 81.29296875 239.34765625 C87.89742129 245.7405245 94.30987063 247.27157717 103.265625 247.15234375 C111.40076877 246.69910003 118.83514234 244.55680395 126.46875 241.8046875 C129 241 129 241 132 241 C132.36351562 241.90878906 132.72703125 242.81757813 133.1015625 243.75390625 C133.34132813 244.35323975 133.58109375 244.95257324 133.828125 245.57006836 C134.36741116 246.91844898 134.90646711 248.26692169 135.4453125 249.61547852 C136.7994627 253.00359679 138.15633279 256.39052348 139.5234375 259.7734375 C142.17132802 266.34412879 144.75902281 272.93088677 147.25 279.5625 C147.49621094 280.21726318 147.74242187 280.87202637 147.99609375 281.54663086 C149.41145656 285.33966634 150.74292776 289.15169867 152 293 C139.28004029 303.83694453 121.78852694 309.98511405 105.15625 310.30859375 C104.39853806 310.32394669 103.64082611 310.33929962 102.8601532 310.3551178 C86.15048116 310.63059942 70.62782745 310.70315527 55 304 C54.26571777 303.6896582 53.53143555 303.37931641 52.77490234 303.05957031 C43.74900702 299.13039201 35.67970331 294.18574174 28 288 C27.01128906 287.21882813 26.02257813 286.43765625 25.00390625 285.6328125 C11.928165 274.17240989 2.9676661 256.44047542 0.33081055 239.38745117 C0.20426684 238.56986171 0.07772314 237.75227224 -0.05265522 236.90990734 C-1.4665413 226.89168246 -1.3753849 216.89676904 -1.29296875 206.80078125 C-1.28735525 204.74285699 -1.28309348 202.68492865 -1.28010559 200.6269989 C-1.26879464 195.27925022 -1.23945037 189.93175628 -1.20599365 184.58410645 C-1.17499169 179.09972578 -1.16153669 173.6153029 -1.14648438 168.13085938 C-1.11456375 157.42044449 -1.06191282 146.71028353 -1 136 C-12.88 136 -24.76 136 -37 136 C-38.33739032 133.32521936 -38.12714329 131.27599145 -38.12939453 128.28100586 C-38.13254669 127.0831395 -38.13569885 125.88527313 -38.13894653 124.65110779 C-38.1369223 123.35214066 -38.13489807 122.05317352 -38.1328125 120.71484375 C-38.13348582 119.37488284 -38.13445608 118.03492204 -38.13571167 116.69496155 C-38.13718681 113.88639157 -38.13503963 111.07785339 -38.13037109 108.26928711 C-38.1246684 104.66202998 -38.12795736 101.05484715 -38.13394356 97.44759274 C-38.13754943 94.68102962 -38.13641056 91.91448425 -38.13381577 89.14792061 C-38.13282067 87.16859514 -38.13586688 85.189269 -38.13894653 83.20994568 C-38.13579437 82.01523148 -38.13264221 80.82051727 -38.12939453 79.58959961 C-38.12859894 78.53195908 -38.12780334 77.47431854 -38.12698364 76.3846283 C-38 74 -38 74 -37 73 C-34.26129758 72.91142125 -31.54725017 72.88469293 -28.80859375 72.90234375 C-28.08224731 72.90335083 -27.35590088 72.90435791 -26.60754395 72.90539551 C-23.88417999 72.91064284 -21.16083847 72.924604 -18.4375 72.9375 C-12.353125 72.958125 -6.26875 72.97875 0 73 C0 48.91 0 24.82 0 0 Z " fill="#39B75D" transform="translate(1297,144)"/>
<path d="M0 0 C12.54 0 25.08 0 38 0 C49.50337838 17.25506757 49.50337838 17.25506757 53.125 22.9375 C53.50914062 23.53755859 53.89328125 24.13761719 54.2890625 24.75585938 C55.19396496 26.16976946 56.09720248 27.58474496 57 29 C60.9078248 28.4092823 63.09479592 26.51860559 66.125 24.0625 C77.73644767 15.03341478 90.88274759 8.12079621 105 4 C106.25425781 3.60941406 107.50851562 3.21882812 108.80078125 2.81640625 C121.95189611 -0.82757476 131.34074316 0 146 0 C146 20.13 146 40.26 146 61 C141.38 61.33 136.76 61.66 132 62 C111.60145851 64.68758035 94.41754305 74.02433862 78 86 C77.12743718 86.57850582 76.25487436 87.15701164 75.35587025 87.75304794 C72.77253575 89.8011947 72.77253575 89.8011947 72.36914349 92.80356216 C72.36637811 93.89127789 72.36361273 94.97899361 72.36076355 96.09967041 C72.34547607 97.35046387 72.3301886 98.60125732 72.31443787 99.88995361 C72.32268972 101.27331826 72.33141847 102.65668012 72.34057617 104.04003906 C72.33212296 105.49875255 72.32147884 106.95745475 72.30880737 108.4161377 C72.28063351 112.37460935 72.2831373 116.33253966 72.29110122 120.29108143 C72.29422371 124.42849047 72.26919953 128.56572631 72.24714661 132.70306396 C72.20967418 140.53697366 72.19755673 148.37070976 72.1945222 156.20470023 C72.18895845 166.79123762 72.14428156 177.37760498 72.10178089 187.96404648 C72.03585446 204.64273982 72.0222332 221.32105869 72 238 C48.24 238 24.48 238 0 238 C0 159.46 0 80.92 0 0 Z " fill="#39B75D" transform="translate(716,217)"/>
<path d="M0 0 C23.76 0 47.52 0 72 0 C72 78.54 72 157.08 72 238 C48.24 238 24.48 238 0 238 C0 159.46 0 80.92 0 0 Z " fill="#39B75D" transform="translate(1473,217)"/>
<path d="M0 0 C23.76 0 47.52 0 72 0 C72 78.54 72 157.08 72 238 C48.24 238 24.48 238 0 238 C0 159.46 0 80.92 0 0 Z " fill="#39B75D" transform="translate(894,217)"/>
<path d="M0 0 C1.05656489 -0.00445668 1.05656489 -0.00445668 2.13447452 -0.0090034 C4.48873001 -0.0176573 6.84293446 -0.01919584 9.19720459 -0.02069092 C10.88775236 -0.02532144 12.57829909 -0.03034641 14.2688446 -0.03573608 C18.85784905 -0.04883958 23.44683888 -0.05530104 28.03585911 -0.05974674 C30.90489714 -0.06268079 33.7739312 -0.06678622 36.64296722 -0.07125092 C45.62537341 -0.08492046 54.60777049 -0.09458977 63.59018636 -0.09845281 C73.94821653 -0.10293232 84.30611467 -0.12047758 94.6641047 -0.1494534 C102.6778707 -0.17109087 110.69159961 -0.18115819 118.70539451 -0.18249393 C123.48828191 -0.18354047 128.2710451 -0.1894163 133.05390167 -0.20731354 C137.55519649 -0.22382994 142.05627419 -0.22593244 146.55758858 -0.21717453 C148.20507706 -0.21640606 149.85257739 -0.22072165 151.50003624 -0.23063278 C170.52724735 -0.33834252 170.52724735 -0.33834252 177.04779053 4.85919189 C177.49122803 5.44700439 177.93466553 6.03481689 178.39154053 6.64044189 C178.85560303 7.22825439 179.31966553 7.81606689 179.79779053 8.42169189 C182.66478439 12.92696796 182.54446428 18.00410838 181.89154053 23.14044189 C177.52373762 35.23052035 169.18807374 42.79176314 157.79144287 48.23077393 C139.05784342 56.75116398 120.53799702 59.54632303 100.12030029 59.98492432 C97.86515331 60.04632723 95.61055885 60.13466222 93.35760498 60.25152588 C77.59680535 61.05111287 67.87298044 59.19324508 55.79949951 48.68267822 C55.14028 48.08179382 54.48106049 47.48090942 53.80186462 46.86181641 C51.03536037 44.36894626 48.10481621 42.14470568 45.14154053 39.89044189 C43.61980225 38.71868408 43.61980225 38.71868408 42.06732178 37.52325439 C28.8273784 27.58922554 16.32397449 18.83499239 -1.10845947 21.14044189 C-15.46553266 24.644436 -23.47426416 31.43500967 -31.80718994 43.29327393 C-33.76886865 46.07790078 -35.76783443 48.83532173 -37.76300049 51.5960083 C-38.87313248 53.13230936 -39.98168122 54.66975566 -41.08868408 56.20831299 C-45.30077306 62.0555392 -49.59937907 67.83251339 -53.93536377 73.5881958 C-59.2343534 80.62468927 -64.4084803 87.7452514 -69.51226807 94.92462158 C-71.70282858 98.00244232 -73.90376642 101.07273224 -76.10845947 104.14044189 C-76.69594971 104.95867432 -77.28343994 105.77690674 -77.88873291 106.61993408 C-79.7878695 109.25724407 -81.69696641 111.88707768 -83.60845947 114.51544189 C-84.22028076 115.36686768 -84.83210205 116.21829346 -85.46246338 117.09552002 C-86.03657959 117.88120361 -86.6106958 118.66688721 -87.20220947 119.47637939 C-87.71461182 120.18326904 -88.22701416 120.89015869 -88.75494385 121.61846924 C-89.201604 122.12072021 -89.64826416 122.62297119 -90.10845947 123.14044189 C-90.76845947 123.14044189 -91.42845947 123.14044189 -92.10845947 123.14044189 C-95.58631391 117.77874964 -96.1434605 112.35044804 -95.10845947 106.14044189 C-92.86914485 100.39204414 -89.43860318 95.59677393 -85.67095947 90.76544189 C-84.59783861 89.36294731 -83.52628079 87.95925568 -82.45611572 86.55450439 C-81.90455811 85.8316626 -81.35300049 85.1088208 -80.784729 84.36407471 C-77.99781939 80.66713723 -75.3052327 76.90336243 -72.60845947 73.14044189 C-68.02554648 66.75965356 -63.3614664 60.44917403 -58.62799072 54.17950439 C-54.8885466 49.21320853 -51.23594782 44.18895258 -47.60845947 39.14044189 C-43.34231318 33.2095204 -39.04307817 27.30629476 -34.67095947 21.45294189 C-34.1991626 20.81807861 -33.72736572 20.18321533 -33.24127197 19.52911377 C-23.84971562 7.0114728 -23.84971562 7.0114728 -17.54595947 3.76544189 C-16.63717041 3.28333252 -15.72838135 2.80122314 -14.79205322 2.30450439 C-9.87893589 0.17334142 -5.32024488 0.01256562 0 0 Z " fill="#39B75D" transform="translate(95.10845947265625,190.85955810546875)"/>
<path d="M0 0 C3.82037831 2.70343546 7.55726999 5.51499094 11.29492188 8.33105469 C14.93556585 11.0477377 18.6345249 13.6831801 22.32568359 16.33056641 C28.0602802 20.45733218 33.74879305 24.63717449 39.38818359 28.89306641 C45.68737762 33.64677687 52.05896488 38.29031347 58.46630859 42.89697266 C64.77024268 47.43365001 71.02393529 52.03579738 77.26879883 56.65332031 C82.7375407 60.69155119 88.24190014 64.67708233 93.76318359 68.64306641 C124.0365541 90.4401561 124.0365541 90.4401561 125.80615234 100.19775391 C126.02998124 106.52891415 124.27775449 110.68856703 120.13818359 115.51806641 C111.70847128 122.79827249 103.17719149 124.36272885 92.27880859 124.22119141 C85.62054038 123.65965071 75.24976099 122.75464381 70.38818359 117.89306641 C69.94630238 116.38496858 69.55754821 114.86101265 69.20068359 113.33056641 C64.56659287 97.36360033 47.62887993 87.732816 34.82324219 78.63427734 C30.77425826 75.73901432 26.76845556 72.78585724 22.76318359 69.83056641 C21.57994507 68.96117432 21.57994507 68.96117432 20.37280273 68.07421875 C16.55585409 65.26297329 12.76544519 62.42532121 9.02099609 59.51806641 C-4.85675979 48.78119342 -16.15625154 43.41765255 -34.10791016 45.13134766 C-52.7094171 48.41396653 -62.9928661 66.93259702 -73.12353516 81.04931641 C-76.56254089 85.8367058 -80.04841816 90.58831576 -83.54931641 95.33056641 C-84.12439941 96.11020752 -84.69948242 96.88984863 -85.29199219 97.69311523 C-88.32205265 101.79858981 -91.35782583 105.89978335 -94.39697266 109.99853516 C-95.01902588 110.83908447 -95.6410791 111.67963379 -96.28198242 112.5456543 C-97.45902748 114.13603925 -98.63776476 115.72517392 -99.81860352 117.31274414 C-103.58240261 122.4013107 -107.14657821 127.59687127 -110.61181641 132.89306641 C-114.46191406 132.10595703 -114.46191406 132.10595703 -115.81103516 130.18994141 C-117.76364024 124.58929854 -118.29370662 118.48348452 -115.71679688 112.98242188 C-113.2183569 108.7377489 -110.24967242 104.84313059 -107.22460938 100.96337891 C-105.61617425 98.89866049 -104.04878682 96.80848713 -102.49072266 94.70556641 C-100.4665163 91.97759565 -98.42970095 89.260154 -96.37744141 86.55322266 C-92.71606829 81.71887243 -89.15816773 76.81219889 -85.61181641 71.89306641 C-83.50807642 68.97609177 -81.40388 66.05944688 -79.29931641 63.14306641 C-78.74010498 62.36809814 -78.18089355 61.59312988 -77.60473633 60.79467773 C-71.872546 52.85760796 -66.07916521 44.96617528 -60.27783203 37.07958984 C-58.93021664 35.24702965 -57.58345317 33.41384582 -56.23681641 31.58056641 C-55.79023682 30.97365967 -55.34365723 30.36675293 -54.88354492 29.74145508 C-52.33286729 26.26745114 -49.80963263 22.77583985 -47.31103516 19.26416016 C-22.55877985 -15.49250346 -22.55877985 -15.49250346 0 0 Z " fill="#39B75D" transform="translate(116.61181640625,235.10693359375)"/>
<path d="M0 0 C9.65328261 5.64925163 13.96427566 14.58565312 16.71484375 24.96875 C21.91949504 47.80205887 16.98989256 71.21839738 11.6953125 93.640625 C10.39400086 99.2271476 9.57563684 104.87913878 8.8125 110.5625 C5.50876537 111.70710097 2.20297529 112.74650934 -1.17578125 113.640625 C-9.40376697 115.8453928 -16.54362864 117.99225805 -23.1875 123.5625 C-23.95791626 124.16106812 -23.95791626 124.16106812 -24.74389648 124.77172852 C-29.74273275 128.79284816 -33.30801608 133.41033345 -37 138.625 C-38.2345831 140.33542558 -39.47026336 142.04505977 -40.70703125 143.75390625 C-41.30338379 144.58164551 -41.89973633 145.40938477 -42.51416016 146.26220703 C-44.68230013 149.24268774 -46.92313388 152.15438021 -49.1875 155.0625 C-53.43685931 160.54417351 -57.57377188 166.10338638 -61.6875 171.6875 C-62.29980469 172.51830078 -62.91210938 173.34910156 -63.54296875 174.20507812 C-65.81345515 177.2944703 -68.06037753 180.37181629 -70.1875 183.5625 C-70.8475 183.5625 -71.5075 183.5625 -72.1875 183.5625 C-71.56428865 177.42245177 -70.30338194 171.69933487 -68.6875 165.75 C-68.13976067 163.69293829 -67.59294573 161.63563029 -67.046875 159.578125 C-66.74845703 158.45728516 -66.45003906 157.33644531 -66.14257812 156.18164062 C-64.563413 150.1976059 -63.03536671 144.20055418 -61.50177002 138.20471191 C-57.54884383 122.75986606 -53.51239587 107.3377994 -49.44546509 91.92263794 C-49.23658661 91.13090179 -49.02770813 90.33916565 -48.8125 89.5234375 C-48.60209076 88.72598114 -48.39168152 87.92852478 -48.17489624 87.10690308 C-45.30702514 76.23186127 -42.46301399 65.35055057 -39.6182251 54.4694519 C-27.55052416 8.31193882 -27.55052416 8.31193882 -17.9375 -0.5 C-12.12599527 -2.48119479 -5.67528128 -2.44508166 0 0 Z " fill="#39B75D" transform="translate(86.1875,60.4375)"/>
<path d="M0 0 C7.90040615 6.62842662 13.44106262 14.72749525 16 24.75 C17.10297134 38.26139886 15.04074799 48.2262185 7.4375 59.5 C-0.2094587 67.58392777 -10.5419038 73.25310157 -21.73046875 74.015625 C-33.96767543 74.19448795 -44.6488882 71.4927046 -53.79296875 62.890625 C-61.6847943 54.20793421 -65.58103243 44.56893181 -66.125 32.75 C-64.80649907 18.90574028 -59.97677742 8.75105799 -49.32421875 -0.27734375 C-34.80744807 -11.04927222 -14.50440222 -10.5776605 0 0 Z " fill="#39B75D" transform="translate(1534.75,112.1875)"/>
<path d="M0 0 C7.55278977 5.73815846 14.17866639 14.10151203 16.2109375 23.53125 C17.88933304 36.83174292 17.3138814 48.43554415 9.421875 59.609375 C3.50758189 66.86081263 -4.82936993 74.01976508 -14.51293945 75.03710938 C-27.63078928 75.66848433 -37.25167785 75.25335714 -48.375 67.8125 C-48.375 67.1525 -48.375 66.4925 -48.375 65.8125 C-49.27025391 65.44898438 -49.27025391 65.44898438 -50.18359375 65.078125 C-55.53027548 61.99020186 -59.04218715 54.33758307 -61.375 48.8125 C-64.13095101 35.64517852 -63.49117291 21.68071341 -56.1328125 10.234375 C-49.66455306 1.32255088 -41.3231684 -4.6603566 -30.41796875 -6.90234375 C-19.51145257 -8.42466819 -9.25832151 -6.0502709 0 0 Z " fill="#39B75D" transform="translate(953.375,111.1875)"/>
<path d="M0 0 C5.38808679 3.34079993 9.96642691 7.5980803 14.4375 12.0625 C14.90414062 12.52124512 15.37078125 12.97999023 15.8515625 13.45263672 C26.08255829 23.60498515 35.62968003 35.78468937 41.4375 49.0625 C41.4375 50.0525 41.4375 51.0425 41.4375 52.0625 C18.3375 52.0625 -4.7625 52.0625 -28.5625 52.0625 C-31.8625 44.4725 -35.1625 36.8825 -38.5625 29.0625 C-38.8925 28.4025 -39.2225 27.7425 -39.5625 27.0625 C-40.22312015 19.41663396 -40.4881075 12.29796434 -35.5625 6.0625 C-26.62800082 -3.15962893 -12.01098458 -5.60127646 0 0 Z " fill="#39B75D" transform="translate(186.5625,119.9375)"/>
<path d="M0 0 C3.57906644 2.79441461 5.81973579 5.60563562 6.52319336 10.10449219 C6.6188829 15.55879604 5.93123771 18.70612934 2.18725586 22.95605469 C-2.31202232 26.17244736 -7.36396924 27.63804785 -12.57446289 29.31152344 C-13.52029739 29.61802322 -14.4661319 29.92452301 -15.44062805 30.24031067 C-17.43913414 30.88490741 -19.4387728 31.52600192 -21.43945312 32.16381836 C-24.47718406 33.13617333 -27.50712795 34.13051753 -30.53735352 35.12597656 C-32.48678444 35.75169447 -34.43664158 36.37608635 -36.38696289 36.99902344 C-37.28211105 37.29584518 -38.17725922 37.59266693 -39.09953308 37.89848328 C-44.99483924 39.74486998 -50.6256852 40.7605032 -56.81274414 39.95605469 C-60.31526425 37.91291796 -62.58636116 35.85818236 -63.81274414 31.95605469 C-64.26722806 27.86569946 -64.07298315 25.50906258 -62.31274414 21.76855469 C-56.96091441 15.74774624 -48.07216239 13.29095573 -40.74487305 10.25708008 C-39.90102051 9.90766357 -39.05716797 9.55824707 -38.18774414 9.19824219 C-37.31762695 8.83827148 -36.44750977 8.47830078 -35.55102539 8.10742188 C-32.68648285 6.90296551 -29.84339377 5.65541954 -27.00024414 4.40136719 C-25.0628666 3.56514592 -23.12536902 2.72920268 -21.18774414 1.89355469 C-20.28846191 1.4872583 -19.38917969 1.08096191 -18.46264648 0.66235352 C-12.31244717 -1.95196713 -6.1478046 -3.54047306 0 0 Z " fill="#39B75D" transform="translate(339.812744140625,116.0439453125)"/>
<path d="M0 0 C3.54800229 1.72182464 5.00047969 3.16288887 7.109375 6.58984375 C8.6201996 12.25543601 8.48431244 15.78246011 5.7421875 20.8828125 C0.06565909 29.7143213 -6.64004642 37.88124319 -13.13769531 46.11450195 C-18.67377778 53.12228617 -18.67377778 53.12228617 -24.015625 60.27734375 C-26.27705425 62.76491593 -27.60705932 63.59357882 -30.890625 64.33984375 C-37.70403608 64.33984375 -37.70403608 64.33984375 -40.48046875 62 C-43.18589144 58.7927018 -44.78275931 56.34039102 -45.23046875 52.1875 C-44.80261531 47.34341218 -43.13676486 44.72407431 -40.453125 40.77734375 C-39.999375 40.08261963 -39.545625 39.38789551 -39.078125 38.67211914 C-38.14314563 37.24214112 -37.2018828 35.81625187 -36.25439453 34.39453125 C-34.62812474 31.94435463 -33.05028601 29.4658216 -31.47583008 26.98217773 C-30.38767756 25.27271339 -29.2856835 23.57296488 -28.1796875 21.875 C-26.54104145 19.35866038 -24.94029664 16.82155507 -23.3515625 14.2734375 C-22.49010194 12.92024263 -21.62813437 11.56737037 -20.765625 10.21484375 C-20.38212891 9.58698975 -19.99863281 8.95913574 -19.60351562 8.31225586 C-15.1499185 1.41875593 -8.42876526 -2.94310192 0 0 Z " fill="#39B75D" transform="translate(273.890625,31.66015625)"/>
<path d="M0 0 C3.90614493 1.95693994 6.46669084 4.92736437 8 9 C8.20670137 11.52601229 8.28267751 13.91183608 8.25 16.4375 C8.23876099 17.61252075 8.23876099 17.61252075 8.22729492 18.8112793 C8.17705654 21.87525916 8.09118743 24.93695054 8 28 C7.9804425 28.70137085 7.96088501 29.4027417 7.94073486 30.12536621 C7.80149013 35.01599549 7.62581515 39.90390218 7.4161377 44.79202271 C7.34729581 46.4662631 7.28612183 48.14083716 7.23278809 49.81564331 C7.15364799 52.20814818 7.04339088 54.59739603 6.92578125 56.98828125 C6.90781998 57.70644012 6.8898587 58.424599 6.87135315 59.16452026 C6.54404121 64.77542761 4.83937197 67.16866095 1 71 C-2.44640377 72.72320188 -6.2242282 72.3723512 -10 72 C-13.63467079 70.37599816 -14.77408696 69.33886956 -17 66 C-17.39477539 63.50170898 -17.39477539 63.50170898 -17.59765625 60.49609375 C-17.67669189 59.37493164 -17.75572754 58.25376953 -17.8371582 57.09863281 C-17.911521 55.89045898 -17.98588379 54.68228516 -18.0625 53.4375 C-18.14266357 52.19709961 -18.22282715 50.95669922 -18.30541992 49.67871094 C-18.54924119 45.7864459 -18.77553887 41.89342472 -19 38 C-19.07669922 36.76717285 -19.15339844 35.5343457 -19.23242188 34.26416016 C-19.44607175 30.76020774 -19.63392493 27.25589723 -19.8125 23.75 C-19.87767822 22.6870874 -19.94285645 21.6241748 -20.01000977 20.52905273 C-20.28953152 14.20252676 -19.7898797 9.72350028 -17 4 C-12.17326215 -0.82673785 -6.48076706 -1.12667124 0 0 Z " fill="#39B75D" transform="translate(174,0)"/>
</svg>
