<?xml version="1.0" encoding="UTF-8"?>
<svg version="1.1" xmlns="http://www.w3.org/2000/svg" width="417" height="201">
<path d="M0 0 C4.06679992 1.35559997 4.85882452 3.9049638 6.75 7.5 C10.71096741 14.78315023 14.89803804 21.9056995 19.1875 29 C27.97114295 43.56109552 36.58717634 58.22126842 45 73 C45.66 73 46.32 73 47 73 C47.28496338 72.49476807 47.56992676 71.98953613 47.86352539 71.46899414 C54.45412508 59.80669657 61.19267181 48.24534031 68.12011719 36.77978516 C71.60193752 31.01329879 75.04715533 25.22845075 78.44140625 19.41015625 C79.17859078 18.15048306 79.91589425 16.89087947 80.65332031 15.63134766 C81.72955244 13.79303108 82.8032645 11.95348312 83.86901855 10.10906982 C84.85018698 8.41138641 85.84087436 6.71921504 86.83203125 5.02734375 C87.67858276 3.56929321 87.67858276 3.56929321 88.54223633 2.08178711 C89.02329834 1.39479736 89.50436035 0.70780762 90 0 C90.66 0 91.32 0 92 0 C93.58129883 2.31298828 93.58129883 2.31298828 95.45703125 5.5703125 C95.79612518 6.15411682 96.13521912 6.73792114 96.48458862 7.3394165 C97.60064318 9.26412495 98.7063742 11.19457143 99.8125 13.125 C100.58551321 14.46093052 101.3593641 15.79637666 102.1340332 17.13134766 C103.6955375 19.82347853 105.25386634 22.51740396 106.80957031 25.21289062 C109.73929537 30.28438736 112.70698439 35.33321072 115.6875 40.375 C116.19539062 41.23512695 116.70328125 42.09525391 117.2265625 42.98144531 C123.38471109 53.3810965 129.68945561 63.69234908 136 74 C136.43642822 73.25242432 136.87285645 72.50484863 137.32250977 71.73461914 C146.28318653 56.39436192 155.29230435 41.08754062 164.46875 25.875 C166.84700212 21.93045408 169.19908757 17.97196413 171.53125 14 C172.08578857 13.060354 172.64032715 12.12070801 173.21166992 11.15258789 C174.25419706 9.38440972 175.29111704 7.61290967 176.3215332 5.83764648 C177.00735474 4.67857788 177.00735474 4.67857788 177.70703125 3.49609375 C178.1038208 2.81732178 178.50061035 2.1385498 178.90942383 1.43920898 C179.26931396 0.96427002 179.6292041 0.48933105 180 0 C180.66 0 181.32 0 182 0 C182.56376343 0.98504517 182.56376343 0.98504517 183.13891602 1.98999023 C190.77588207 15.31860295 198.50333005 28.57872421 206.43725586 41.73339844 C211.32211793 49.8423332 216.11118274 58.00359932 220.86914062 66.1875 C226.33048133 75.5797718 231.85511816 84.93381765 237.39111328 94.28222656 C240.09700372 98.85308731 242.79825263 103.42668959 245.5 108 C246.5833114 109.83334629 247.66664473 111.66667963 248.75 113.5 C268.25 146.5 268.25 146.5 269.8762207 149.25219727 C270.95533137 151.07829719 272.03459473 152.90430689 273.11401367 154.73022461 C275.88823781 159.42348614 278.65947384 164.11847346 281.42578125 168.81640625 C282.55454074 170.73185732 283.6834447 172.64722327 284.8125 174.5625 C285.35221436 175.47870117 285.89192871 176.39490234 286.44799805 177.33886719 C290.10605974 183.53247049 293.851921 189.66158278 297.70703125 195.734375 C299 198 299 198 299 200 C161.72 200 24.44 200 -117 200 C-115.45782782 196.14456956 -113.90199218 192.91046502 -111.83984375 189.3515625 C-111.21577637 188.27165039 -110.59170898 187.19173828 -109.94873047 186.07910156 C-109.28502441 184.93924805 -108.62131836 183.79939453 -107.9375 182.625 C-107.2487123 181.43726051 -106.56007382 180.24943448 -105.87158203 179.06152344 C-101.73726156 171.93804228 -97.55173927 164.84805186 -93.2890625 157.80078125 C-90.40863964 153.03322933 -87.58130819 148.23432381 -84.75 143.4375 C-84.19812012 142.50260742 -83.64624023 141.56771484 -83.07763672 140.60449219 C-81.94810941 138.69067081 -80.81871601 136.77677039 -79.68945312 134.86279297 C-76.96172198 130.2406289 -74.23073618 125.62038912 -71.5 121 C-70.41665021 119.16667639 -69.33331689 117.33334305 -68.25 115.5 C-61.75 104.5 -61.75 104.5 -60.12597656 101.75170898 C-59.03932226 99.91271789 -57.95273404 98.07368775 -56.86621094 96.23461914 C-54.20922062 91.73753185 -51.55120217 87.24106004 -48.890625 82.74609375 C-44.22166642 74.85527644 -39.55826243 66.9614709 -34.9296875 59.046875 C-27.38366053 46.14524664 -19.80526253 33.26763384 -12.08447266 20.46948242 C-7.99275845 13.68272814 -3.97662297 6.85481866 0 0 Z " fill="#DF3720" transform="translate(118,1)"/>
<path d="M0 0 C4.06679992 1.35559997 4.85882452 3.9049638 6.75 7.5 C10.71096318 14.78314247 14.89788134 21.90579984 19.1875 29 C24.99696483 38.62629352 30.71206998 48.30223698 36.34448242 58.03320312 C36.88306885 58.96197266 37.42165527 59.89074219 37.9765625 60.84765625 C38.73694824 62.16660889 38.73694824 62.16660889 39.51269531 63.51220703 C40.91728451 65.861643 42.42411187 68.10710527 43.9609375 70.37109375 C45.47333916 72.79425496 45.99439001 73.68911302 46.046875 76.59765625 C44.68999778 79.7113857 43.0555341 82.57037145 41.25 85.4375 C40.42605338 86.77801332 39.60320333 88.11920104 38.78125 89.4609375 C38.33394531 90.18764648 37.88664063 90.91435547 37.42578125 91.66308594 C34.81965418 95.93463531 32.28933494 100.25103183 29.75 104.5625 C28.63031905 106.45970076 27.510526 108.35683537 26.390625 110.25390625 C25.82923828 111.20539551 25.26785156 112.15688477 24.68945312 113.13720703 C21.96172196 117.75937114 19.2306943 122.3795861 16.5 127 C15.96117187 127.91201172 15.42234375 128.82402344 14.8671875 129.76367188 C12.20990344 134.26134764 9.55153634 138.75837539 6.890625 143.25390625 C5.84367464 145.02339291 4.79680025 146.79292453 3.75 148.5625 C3.22841309 149.44397705 2.70682617 150.3254541 2.16943359 151.23364258 C-1.01925752 156.62882391 -4.19138522 162.03340208 -7.3515625 167.4453125 C-8.10903696 168.74146239 -8.86652396 170.03760496 -9.62402344 171.33374023 C-11.08540009 173.83447091 -12.54397652 176.33680541 -14.00097656 178.84008789 C-14.68544622 180.01194031 -15.37001239 181.18373636 -16.0546875 182.35546875 C-16.64749512 183.37278076 -17.24030273 184.39009277 -17.85107422 185.43823242 C-18.19168381 185.96888809 -18.5322934 186.49954376 -18.88322449 187.04627991 C-20.11554485 189.08800135 -20.11554485 189.08800135 -21.08808899 191.82469177 C-22.70473127 195.35305579 -24.03696424 197.46487453 -27 200 C-33.47036638 202.04469776 -40.68356303 201.27464465 -47.37109375 201.07421875 C-49.37886792 201.0536878 -51.38669741 201.03803658 -53.39454651 201.02705383 C-58.66500521 200.98516478 -63.93209887 200.87722112 -69.20123291 200.75531006 C-74.58356195 200.6425332 -79.96643796 200.59249163 -85.34960938 200.53710938 C-95.90121363 200.41933569 -106.45032642 200.23174284 -117 200 C-115.53578504 196.24513235 -113.86234618 192.84204306 -111.83984375 189.3515625 C-111.21577637 188.27165039 -110.59170898 187.19173828 -109.94873047 186.07910156 C-109.28502441 184.93924805 -108.62131836 183.79939453 -107.9375 182.625 C-107.2487123 181.43726051 -106.56007382 180.24943448 -105.87158203 179.06152344 C-101.73726156 171.93804228 -97.55173927 164.84805186 -93.2890625 157.80078125 C-90.40863964 153.03322933 -87.58130819 148.23432381 -84.75 143.4375 C-84.19812012 142.50260742 -83.64624023 141.56771484 -83.07763672 140.60449219 C-81.94810941 138.69067081 -80.81871601 136.77677039 -79.68945312 134.86279297 C-76.96172198 130.2406289 -74.23073618 125.62038912 -71.5 121 C-70.41665021 119.16667639 -69.33331689 117.33334305 -68.25 115.5 C-61.75 104.5 -61.75 104.5 -60.12597656 101.75170898 C-59.03932226 99.91271789 -57.95273404 98.07368775 -56.86621094 96.23461914 C-54.20922062 91.73753185 -51.55120217 87.24106004 -48.890625 82.74609375 C-44.22166642 74.85527644 -39.55826243 66.9614709 -34.9296875 59.046875 C-27.38366053 46.14524664 -19.80526253 33.26763384 -12.08447266 20.46948242 C-7.99275845 13.68272814 -3.97662297 6.85481866 0 0 Z " fill="#F1C994" transform="translate(118,1)"/>
<path d="M0 0 C0.66 0 1.32 0 2 0 C2.37584229 0.65669678 2.75168457 1.31339355 3.13891602 1.98999023 C10.77588207 15.31860295 18.50333005 28.57872421 26.43725586 41.73339844 C31.32211793 49.8423332 36.11118274 58.00359932 40.86914062 66.1875 C46.33048133 75.5797718 51.85511816 84.93381765 57.39111328 94.28222656 C60.09700372 98.85308731 62.79825263 103.42668959 65.5 108 C66.5833114 109.83334629 67.66664473 111.66667963 68.75 113.5 C88.25 146.5 88.25 146.5 89.8762207 149.25219727 C90.95533137 151.07829719 92.03459473 152.90430689 93.11401367 154.73022461 C95.88823781 159.42348614 98.65947384 164.11847346 101.42578125 168.81640625 C102.55454074 170.73185732 103.6834447 172.64722327 104.8125 174.5625 C105.35221436 175.47870117 105.89192871 176.39490234 106.44799805 177.33886719 C110.10605974 183.53247049 113.851921 189.66158278 117.70703125 195.734375 C119 198 119 198 119 200 C107.43927647 200.37161161 95.87998401 200.65543699 84.31449318 200.82899475 C78.9430232 200.91232426 73.57565267 201.02519413 68.20654297 201.20703125 C63.01900837 201.3816082 57.83539914 201.4766794 52.64515305 201.51803589 C50.67111746 201.54747939 48.69728461 201.60499193 46.72493362 201.69168091 C31.69100005 202.32583709 31.69100005 202.32583709 27.20724678 198.45051956 C24.05225787 194.6494845 21.88445312 190.461269 19.89382267 185.96230412 C18.61838303 183.16219563 17.0283902 180.57885392 15.41796875 177.9609375 C14.33874059 176.10035141 13.26193453 174.23835838 12.1875 172.375 C10.97969971 170.29265948 9.77135469 168.21063484 8.5625 166.12890625 C7.96566406 165.10039551 7.36882812 164.07188477 6.75390625 163.01220703 C4.08728396 158.43247627 1.38897161 153.87173405 -1.3125 149.3125 C-4.91223654 143.23534662 -8.50094768 137.15202378 -12.06640625 131.0546875 C-12.41754486 130.45427139 -12.76868347 129.85385529 -13.13046265 129.23524475 C-13.48508575 128.62885666 -13.83970886 128.02246857 -14.20507812 127.39770508 C-21.12518714 115.56480973 -28.09941794 103.7682437 -35.17919922 92.0300293 C-36.30194347 90.16762979 -37.42046791 88.30267631 -38.53369141 86.43457031 C-39.44579931 84.92016139 -40.37716294 83.41697412 -41.33740234 81.93261719 C-42.95939684 79.35654904 -44.00339387 77.55065594 -43.984375 74.46484375 C-42.71508209 71.2865746 -41.06689901 68.44793119 -39.25 65.5625 C-38.4208915 64.21284326 -37.59282819 62.86254409 -36.765625 61.51171875 C-36.31767578 60.78388184 -35.86972656 60.05604492 -35.40820312 59.30615234 C-32.89412375 55.18895509 -30.44991515 51.0305858 -28 46.875 C-27.46608643 45.97144775 -26.93217285 45.06789551 -26.38208008 44.13696289 C-23.08336049 38.54986079 -19.8007745 32.95350098 -16.52734375 27.3515625 C-15.75846803 26.03661847 -14.98958782 24.72167706 -14.22070312 23.40673828 C-12.72376571 20.84645966 -11.22935989 18.28472568 -9.73632812 15.72216797 C-9.04174758 14.53348136 -8.34708968 13.34483995 -7.65234375 12.15625 C-7.04382568 11.11275391 -6.43530762 10.06925781 -5.80834961 8.99414062 C-3.95322933 5.92256035 -2.10742072 2.90573957 0 0 Z " fill="#03BAB5" transform="translate(298,1)"/>
<path d="M0 0 C0.66 0 1.32 0 2 0 C3.3059082 1.85400391 3.3059082 1.85400391 4.80078125 4.4765625 C5.35870361 5.44553467 5.91662598 6.41450684 6.49145508 7.4128418 C7.0923999 8.472854 7.69334473 9.53286621 8.3125 10.625 C9.59312452 12.85322418 10.87438739 15.08108159 12.15625 17.30859375 C12.80335938 18.43765137 13.45046875 19.56670898 14.1171875 20.72998047 C16.80956374 25.40602914 19.55770145 30.04804527 22.3125 34.6875 C25.91284239 40.76429186 29.50095861 46.8479747 33.06640625 52.9453125 C33.41713699 53.54504883 33.76786774 54.14478516 34.12922668 54.76269531 C34.6606855 55.67148438 34.6606855 55.67148438 35.20288086 56.59863281 C41.93005318 68.10169388 48.71413291 79.56673704 55.58374023 90.9855957 C59.88973047 98.14444236 64.17682605 105.31407845 68.4375 112.5 C68.99985352 113.44480225 69.56220703 114.38960449 70.14160156 115.36303711 C70.9048877 116.65286499 70.9048877 116.65286499 71.68359375 117.96875 C72.35733032 119.10473633 72.35733032 119.10473633 73.04467773 120.26367188 C74 122 74 122 74 123 C25.82 123 -22.36 123 -72 123 C-66.37641723 111.75283447 -66.37641723 111.75283447 -64.125 107.984375 C-63.62162109 107.13746094 -63.11824219 106.29054688 -62.59960938 105.41796875 C-62.07173828 104.53753906 -61.54386719 103.65710938 -61 102.75 C-59.84365843 100.80734617 -58.68741109 98.86463625 -57.53125 96.921875 C-56.94472656 95.93896484 -56.35820312 94.95605469 -55.75390625 93.94335938 C-52.98910428 89.30354137 -50.24517213 84.65144901 -47.5 80 C-46.41677646 78.16660179 -45.33344288 76.3332686 -44.25 74.5 C-43.71375 73.5925 -43.1775 72.685 -42.625 71.75 C-40.1875 67.625 -40.1875 67.625 -37.75 63.5 C-36.9458667 62.13911255 -36.9458667 62.13911255 -36.12548828 60.75073242 C-35.04063698 58.91489289 -33.9556758 57.07911829 -32.87060547 55.2434082 C-30.18459844 50.69894203 -27.50042525 46.15341392 -24.8203125 41.60546875 C-22.14272747 37.06270559 -19.45704897 32.52479403 -16.76806641 27.98876953 C-15.16206661 25.27396015 -13.56236233 22.55552246 -11.9642334 19.83607483 C-10.92800896 18.07565088 -9.88831668 16.31732998 -8.84716797 14.55981445 C-7.50851111 12.29996764 -6.17534252 10.0368592 -4.84814453 7.77026367 C-3.94298096 6.24816284 -3.94298096 6.24816284 -3.01953125 4.6953125 C-2.48432861 3.78797363 -1.94912598 2.88063477 -1.39770508 1.94580078 C-0.9364624 1.30368652 -0.47521973 0.66157227 0 0 Z " fill="#1C3532" transform="translate(253,78)"/>
<path d="M0 0 C0.66 0 1.32 0 2 0 C3.58129883 2.31298828 3.58129883 2.31298828 5.45703125 5.5703125 C5.7961705 6.15416214 6.13530975 6.73801178 6.48472595 7.33955383 C7.60078471 9.26418916 8.70649027 11.19457543 9.8125 13.125 C10.58479919 14.46018726 11.35791742 15.79490109 12.13183594 17.12915039 C13.69243433 19.82064817 15.24991426 22.51391127 16.80517578 25.20849609 C19.75116106 30.30592352 22.7476037 35.37314943 25.75 40.4375 C26.26119385 41.30310547 26.7723877 42.16871094 27.29907227 43.06054688 C30.06967938 47.75135506 32.85580398 52.4324087 35.65625 57.10546875 C36.25727539 58.11230713 36.85830078 59.11914551 37.47753906 60.15649414 C38.6315303 62.08919103 39.78953258 64.01950044 40.95214844 65.94702148 C41.4680957 66.81270752 41.98404297 67.67839355 42.515625 68.5703125 C42.97227539 69.33102051 43.42892578 70.09172852 43.89941406 70.87548828 C45.01011778 73.01953082 45.75753445 74.59530531 46 77 C45.12646484 79.12451172 45.12646484 79.12451172 43.7109375 81.4296875 C43.18822266 82.2959375 42.66550781 83.1621875 42.12695312 84.0546875 C41.54880859 84.98539062 40.97066406 85.91609375 40.375 86.875 C39.16373636 88.87219807 37.95280799 90.86959951 36.7421875 92.8671875 C36.11795898 93.88780273 35.49373047 94.90841797 34.85058594 95.95996094 C32.01889765 100.61170006 29.26110955 105.30615609 26.5 110 C25.42610376 111.81659694 24.35188312 113.63300215 23.27734375 115.44921875 C21.01258144 119.28110656 18.75598572 123.11767666 16.50390625 126.95703125 C15.63958984 128.4275293 15.63958984 128.4275293 14.7578125 129.92773438 C13.66583514 131.78585715 12.57583498 133.64514401 11.48828125 135.50585938 C8.17612461 141.13567202 4.68245053 146.60512411 1 152 C-1.09937859 149.28519346 -2.94390695 146.52972745 -4.6796875 143.5703125 C-5.18951172 142.7040625 -5.69933594 141.8378125 -6.22460938 140.9453125 C-6.76923828 140.01460937 -7.31386719 139.08390625 -7.875 138.125 C-9.04941645 136.12756729 -10.2238974 134.1301725 -11.3984375 132.1328125 C-11.9975293 131.11219727 -12.59662109 130.09158203 -13.21386719 129.04003906 C-15.96673372 124.35459701 -18.73360793 119.67746432 -21.5 115 C-22.57039514 113.18885092 -23.64070713 111.3776527 -24.7109375 109.56640625 C-25.24557617 108.66164551 -25.78021484 107.75688477 -26.33105469 106.82470703 C-28.08817897 103.85075618 -29.84490317 100.87656926 -31.6015625 97.90234375 C-32.19130859 96.90396484 -32.78105469 95.90558594 -33.38867188 94.87695312 C-34.51771731 92.965577 -35.64663077 91.05412291 -36.77539062 89.14257812 C-37.28521484 88.27955078 -37.79503906 87.41652344 -38.3203125 86.52734375 C-39.02269043 85.32827393 -39.02269043 85.32827393 -39.73925781 84.10498047 C-40.75166282 82.41463267 -41.83058599 80.76420911 -42.9296875 79.12890625 C-44 77 -44 77 -43.70410156 75.12353516 C-42.95162363 72.85409928 -41.99570088 70.96746736 -40.8046875 68.89453125 C-40.34416992 68.08935059 -39.88365234 67.28416992 -39.40917969 66.45458984 C-38.90290039 65.5827002 -38.39662109 64.71081055 -37.875 63.8125 C-37.34293945 62.88904785 -36.81087891 61.9655957 -36.26269531 61.01416016 C-31.55686226 52.88281736 -26.7373072 44.82018077 -21.87963867 36.77880859 C-18.3975195 31.01287218 -14.95268382 25.22817503 -11.55859375 19.41015625 C-10.82140922 18.15048306 -10.08410575 16.89087947 -9.34667969 15.63134766 C-8.27044756 13.79303108 -7.1967355 11.95348312 -6.13098145 10.10906982 C-5.14981302 8.41138641 -4.15912564 6.71921504 -3.16796875 5.02734375 C-2.60360107 4.05531006 -2.0392334 3.08327637 -1.45776367 2.08178711 C-0.97670166 1.39479736 -0.49563965 0.70780762 0 0 Z " fill="#ED4541" transform="translate(208,1)"/>
<path d="M0 0 C0.66 0 1.32 0 2 0 C2.40726318 0.70906494 2.81452637 1.41812988 3.23413086 2.14868164 C5.13379228 5.45413003 7.03506519 8.75864731 8.9375 12.0625 C9.27914185 12.65591187 9.62078369 13.24932373 9.97277832 13.86071777 C14.64848215 21.97750163 19.37934755 30.05459173 24.265625 38.046875 C25.97527493 40.95790055 27.49023362 43.98046723 29 47 C10.52 47 -7.96 47 -27 47 C-21.37438958 35.74877916 -21.37438958 35.74877916 -18.984375 31.73828125 C-18.45948486 30.85350098 -17.93459473 29.9687207 -17.39379883 29.05712891 C-16.85134521 28.15140137 -16.3088916 27.24567383 -15.75 26.3125 C-15.18369873 25.36294434 -14.61739746 24.41338867 -14.03393555 23.43505859 C-12.89474232 21.52549542 -11.75438424 19.61662662 -10.61279297 17.70849609 C-9.13490246 15.22655282 -7.67473386 12.73538651 -6.22265625 10.23828125 C-5.81112305 9.53598389 -5.39958984 8.83368652 -4.97558594 8.11010742 C-4.21692028 6.81524796 -3.46340723 5.51735166 -2.71582031 4.21606445 C-1.86577851 2.77663016 -0.94065469 1.38192291 0 0 Z " fill="#1B2A1E" transform="translate(208,154)"/>
</svg>
