<svg width="63" height="90" viewBox="0 0 63 90" fill="none" xmlns="http://www.w3.org/2000/svg">
<path d="M16.6875 9.375C14.6042 9.375 12.8125 10.125 11.3125 11.625C10.1458 12.7917 9.4375 14.2292 9.1875 15.9375C12.2292 18.8125 13.75 22.6458 13.75 27.4375V36.875C14.6667 37.25 15.6458 37.4375 16.6875 37.4375H46.1875C50.7708 37.4375 54.6875 39.0833 57.9375 42.375C61.2292 45.625 62.875 49.5417 62.875 54.125V73.3125C62.875 77.8958 61.2292 81.8333 57.9375 85.125C54.6875 88.375 50.7708 90 46.1875 90H16.6875C12.1042 90 8.16667 88.375 4.875 85.125C1.625 81.8333 0 77.8958 0 73.3125H4.5625H9.125H13.75V80.3125C14.6667 80.6875 15.6458 80.875 16.6875 80.875H46.1875C48.2708 80.875 50.0417 80.1458 51.5 78.6875C53 77.1875 53.75 75.3958 53.75 73.3125V54.125C53.75 52.0417 53 50.2708 51.5 48.8125C50.0417 47.3125 48.2708 46.5625 46.1875 46.5625H16.6875C12.1042 46.5625 8.16667 44.9167 4.875 41.625C1.625 38.375 0 34.4583 0 29.875V16.9375C0 12.3542 1.625 8.4375 4.875 5.1875C8.16667 1.89583 12.1042 0.25 16.6875 0.25H46.1875C50.7708 0.25 54.6875 1.89583 57.9375 5.1875C61.2292 8.4375 62.875 12.3542 62.875 16.9375H53.75C53.75 14.8542 53 13.0833 51.5 11.625C50.0417 10.125 48.2708 9.375 46.1875 9.375H16.6875Z" fill="white"/>
</svg>
