<?xml version="1.0" encoding="UTF-8"?>
<!DOCTYPE svg PUBLIC "-//W3C//DTD SVG 1.1//EN" "http://www.w3.org/Graphics/SVG/1.1/DTD/svg11.dtd">
<svg xmlns="http://www.w3.org/2000/svg" version="1.1" width="512px" height="512px" style="shape-rendering:geometricPrecision; text-rendering:geometricPrecision; image-rendering:optimizeQuality; fill-rule:evenodd; clip-rule:evenodd" xmlns:xlink="http://www.w3.org/1999/xlink">
<g><path style="opacity:1" fill="#fefffe" d="M 227.5,24.5 C 260.048,21.5907 291.048,27.0907 320.5,41C 347.485,55.7729 362.319,78.6063 365,109.5C 366.259,159.152 366.925,208.818 367,258.5C 367.941,265.656 370.274,272.323 374,278.5C 378.281,285.115 382.947,291.448 388,297.5C 392.385,307.121 390.552,315.288 382.5,322C 368.5,334 354.5,346 340.5,358C 332.608,361.59 324.942,361.257 317.5,357C 306.842,347.684 297.675,337.184 290,325.5C 257.38,358.125 218.213,369.958 172.5,361C 134.69,351.233 112.524,327.066 106,288.5C 99.7017,221.134 129.202,178.634 194.5,161C 220.493,154.93 246.826,151.43 273.5,150.5C 273.666,142.16 273.5,133.827 273,125.5C 270.186,106.693 259.186,97.0268 240,96.5C 225.509,97.2443 213.842,103.244 205,114.5C 202.115,122.39 198.782,130.057 195,137.5C 190.377,142.021 184.877,143.521 178.5,142C 160.797,139.912 143.131,137.579 125.5,135C 120.427,133.594 116.927,130.428 115,125.5C 117.785,88.1109 135.619,60.2775 168.5,42C 187.287,32.789 206.954,26.9556 227.5,24.5 Z M 259.5,207.5 C 264.167,207.5 268.833,207.5 273.5,207.5C 273.857,220.875 273.357,234.208 272,247.5C 268.813,264.389 260.646,278.222 247.5,289C 232.071,297.957 218.238,296.123 206,283.5C 200.799,272.4 199.133,260.734 201,248.5C 203.48,234.362 210.98,223.862 223.5,217C 235.001,211.474 247.001,208.307 259.5,207.5 Z"/></g>
<g><path style="opacity:0.974" fill="#343639" d="M 430.5,342.5 C 440.172,342.334 449.839,342.5 459.5,343C 482.37,345.171 491.204,357.671 486,380.5C 482.644,405.042 472.477,426.209 455.5,444C 445.829,450.716 436.996,449.883 429,441.5C 428.089,438.689 427.256,435.856 426.5,433C 427.352,429.387 428.185,425.887 429,422.5C 361.696,471.26 286.529,491.76 203.5,484C 169.836,478.447 138.503,466.781 109.5,449C 80.0037,430.513 52.5037,409.347 27,385.5C 21.3983,373.561 24.565,365.061 36.5,360C 39.8333,359.333 43.1667,359.333 46.5,360C 71.6637,374.084 97.3304,387.417 123.5,400C 161.264,418.233 201.097,428.066 243,429.5C 300.701,426.95 355.867,413.783 408.5,390C 421.598,387.275 430.598,392.108 435.5,404.5C 438.254,398.481 439.588,392.147 439.5,385.5C 424.652,385.023 409.986,386.356 395.5,389.5C 383.046,387.938 377.88,380.938 380,368.5C 381.29,364.76 383.457,361.593 386.5,359C 399.897,349.816 414.563,344.316 430.5,342.5 Z"/></g>
<g><path style="opacity:1" fill="#e7790d" d="M 431.5,373.5 C 431.5,367.167 431.5,360.833 431.5,354.5C 442.875,352.929 454.209,353.429 465.5,356C 472.66,357.298 475.994,361.631 475.5,369C 474.531,395.255 464.864,417.589 446.5,436C 442.324,438.632 439.658,437.632 438.5,433C 443.806,418.416 448.306,403.582 452,388.5C 454.458,379.905 451.291,375.072 442.5,374C 438.848,373.501 435.182,373.335 431.5,373.5 Z"/></g>
<g><path style="opacity:1" fill="#f69626" d="M 431.5,354.5 C 431.5,360.833 431.5,367.167 431.5,373.5C 419.416,374.01 407.416,375.344 395.5,377.5C 390.167,376.367 389.167,373.533 392.5,369C 404.049,360.359 417.049,355.526 431.5,354.5 Z"/></g>
<g><path style="opacity:1" fill="#f79626" d="M 333.5,428.5 C 306.106,442.464 277.106,451.964 246.5,457C 203.482,460.775 162.482,453.442 123.5,435C 106.729,426.585 90.0622,418.085 73.5,409.5C 60.57,399.771 48.07,389.438 36,378.5C 34.7972,374.037 36.4639,371.37 41,370.5C 54.0112,376.923 66.8446,383.757 79.5,391C 107.425,406.195 136.425,418.861 166.5,429C 204.461,440.687 243.128,443.687 282.5,438C 299.586,435.264 316.586,432.097 333.5,428.5 Z"/></g>
<g><path style="opacity:1" fill="#e77a0d" d="M 73.5,409.5 C 90.0622,418.085 106.729,426.585 123.5,435C 162.482,453.442 203.482,460.775 246.5,457C 277.106,451.964 306.106,442.464 333.5,428.5C 360.12,421.237 386.12,412.07 411.5,401C 420.166,399.336 424,402.836 423,411.5C 402.653,428.099 380.153,441.266 355.5,451C 312.888,468.602 268.555,476.602 222.5,475C 183.302,471.045 146.969,458.712 113.5,438C 99.5719,429.215 86.2386,419.715 73.5,409.5 Z"/></g>
</svg>
