<?xml version="1.0" encoding="UTF-8"?>
<svg version="1.1" xmlns="http://www.w3.org/2000/svg" width="264" height="255">
<path d="M0 0 C0 45.54 0 91.08 0 138 C-20.79 138 -41.58 138 -63 138 C-63.40108809 112.28579668 -63.40108809 112.28579668 -63.48828125 101.32421875 C-63.54806272 93.84416781 -63.61877502 86.36534088 -63.75439453 78.88623047 C-63.86305549 72.85608144 -63.92284261 66.82724463 -63.94877243 60.79619217 C-63.96724977 58.49550332 -64.0033342 56.19488636 -64.05730057 53.89475632 C-64.12993016 50.67093608 -64.13989183 47.45253412 -64.13525391 44.22802734 C-64.17120667 43.27712219 -64.20715942 42.32621704 -64.24420166 41.34649658 C-64.20087853 38.56267613 -64.06305625 36.57827407 -63 34 C-59.94352465 31.34956507 -56.66070873 29.67712479 -53 28 C-51.99259766 27.4337793 -50.98519531 26.86755859 -49.94726562 26.28417969 C-49.10873047 25.83461914 -48.27019531 25.38505859 -47.40625 24.921875 C-46.44726807 24.40560547 -45.48828613 23.88933594 -44.50024414 23.35742188 C-43.51016357 22.82697266 -42.52008301 22.29652344 -41.5 21.75 C-32.62207865 16.96826111 -23.77785854 12.13298155 -14.97265625 7.21875 C-14.33344238 6.86296875 -13.69422852 6.5071875 -13.03564453 6.140625 C-11.54290688 5.30420496 -10.05496087 4.45921811 -8.56982422 3.609375 C-7.76174316 3.15046875 -6.95366211 2.6915625 -6.12109375 2.21875 C-5.38173584 1.79529297 -4.64237793 1.37183594 -3.88061523 0.93554688 C-2 0 -2 0 0 0 Z " fill="#0081FF" transform="translate(264,0)"/>
<path d="M0 0 C20.79 0 41.58 0 63 0 C63 27.72 63 55.44 63 84 C42.21 84 21.42 84 0 84 C0 56.28 0 28.56 0 0 Z " fill="#003873" transform="translate(201,171)"/>
<path d="M0 0 C20.79 0 41.58 0 63 0 C63 27.72 63 55.44 63 84 C42.21 84 21.42 84 0 84 C0 56.28 0 28.56 0 0 Z " fill="#003873" transform="translate(102,171)"/>
<path d="M0 0 C20.79 0 41.58 0 63 0 C63 27.72 63 55.44 63 84 C42.21 84 21.42 84 0 84 C0 56.28 0 28.56 0 0 Z " fill="#003873" transform="translate(0,171)"/>
<path d="M0 0 C0 27.72 0 55.44 0 84 C-20.79 84 -41.58 84 -63 84 C-63 67.5 -63 51 -63 34 C-49.02718882 26.06704914 -35.0147165 18.21825779 -20.9387207 10.47070312 C-20.34982559 10.14654419 -19.76093048 9.82238525 -19.15419006 9.48840332 C-17.46437478 8.55892416 -15.77370416 7.63100057 -14.08300781 6.703125 C-12.12308922 5.62042052 -10.16861258 4.52776026 -8.22167969 3.421875 C-7.41375977 2.96296875 -6.60583984 2.5040625 -5.7734375 2.03125 C-4.73968994 1.43666992 -4.73968994 1.43666992 -3.68505859 0.83007812 C-2 0 -2 0 0 0 Z " fill="#0081FF" transform="translate(165,54)"/>
<path d="M0 0 C4.3885412 1.46284707 7.61672677 2.73842781 11.54296875 4.94921875 C12.60451172 5.54323486 13.66605469 6.13725098 14.75976562 6.74926758 C15.89091797 7.38888428 17.02207031 8.02850098 18.1875 8.6875 C19.37275186 9.35298338 20.55830388 10.01793243 21.74414062 10.68237305 C24.2242467 12.07242999 26.70302634 13.46481506 29.18115234 14.85839844 C33.0047786 17.00588601 36.83886874 19.13417499 40.67578125 21.2578125 C41.29406296 21.60018448 41.91234467 21.94255646 42.54936218 22.29530334 C44.9575257 23.62867426 47.36580164 24.96183973 49.77474976 26.29379272 C51.43384188 27.21156906 53.09194339 28.13113547 54.75 29.05078125 C55.69359375 29.57325439 56.6371875 30.09572754 57.609375 30.6340332 C59.44869603 31.68499329 61.23738458 32.82492306 63 34 C63.36076355 36.13870239 63.36076355 36.13870239 63.34057617 38.81689453 C63.34021362 39.83178955 63.33985107 40.84668457 63.33947754 41.89233398 C63.32412964 42.96169189 63.30878174 44.0310498 63.29296875 45.1328125 C63.28994751 46.1137085 63.28692627 47.09460449 63.28381348 48.10522461 C63.26808627 51.7785897 63.22620246 55.45180513 63.1875 59.125 C63.125625 67.33375 63.06375 75.5425 63 84 C42.21 84 21.42 84 0 84 C0 56.28 0 28.56 0 0 Z " fill="#0081FF" transform="translate(0,54)"/>
</svg>
